<svg width="400" height="147" viewBox="0 0 400 147" fill="none" xmlns="http://www.w3.org/2000/svg">
<path d="M400 113.426C400 135.809 388.764 147 366.291 147H361.891V36.2709H400V113.426ZM309.588 36.2709H348.833V108.671H342.445C325.035 108.671 314.65 102.756 311.291 90.9256C310.155 87.0927 309.588 82.6683 309.588 77.6523V36.2709Z" fill="#2EB710"/>
<path d="M259.029 0H296.855V108.671H259.029V0ZM206.442 73.3225C206.442 68.1173 207.128 63.2907 208.5 58.8426C209.872 54.3472 212.001 50.4196 214.887 47.0599C221.132 39.8672 230.074 36.2709 241.713 36.2709H247.177V108.671H243.487C231.564 108.671 222.339 105.406 215.81 98.8754C209.565 92.6292 206.442 84.1115 206.442 73.3225Z" fill="#14AFFE"/>
<path d="M155.883 0H193.709V108.671H155.883V0ZM103.297 73.3225C103.297 68.1173 103.983 63.2907 105.355 58.8426C106.727 54.3472 108.856 50.4196 111.742 47.0599C117.987 39.8672 126.929 36.2709 138.567 36.2709H144.032V108.671H140.342C128.419 108.671 119.193 105.406 112.664 98.8754C106.419 92.6292 103.297 84.1115 103.297 73.3225Z" fill="#AC23CA"/>
<path d="M51.2385 36.2709H90.4125V108.671H85.9416C73.6406 108.671 64.7933 106.518 59.3998 102.211C53.9589 97.858 51.2385 90.6654 51.2385 80.6335V36.2709ZM0 73.3225C0 68.1173 0.686019 63.2907 2.05806 58.8426C3.43009 54.3472 5.55912 50.4196 8.44513 47.0599C14.6903 39.8672 23.6322 36.2709 35.2708 36.2709H40.7353V108.671H37.045C25.1225 108.671 15.8967 105.406 9.3677 98.8754C3.12257 92.6292 0 84.1115 0 73.3225Z" fill="#FF6644"/>
</svg>
