<svg width="780" height="558" viewBox="0 0 780 558" fill="none" xmlns="http://www.w3.org/2000/svg">
<path d="M260 0H0V372H260V0Z" fill="#FB923C"/>
<path d="M31.7686 307H30.6675V296.051H31.7686V300.929H37.6865V296.051H38.7722V307H37.6865V301.954H31.7686V307ZM48.0096 307H41.4494V296.051H47.9943V297.06H42.5505V301.006H47.4897V302H42.5505V305.991H48.0096V307ZM52.9519 301.541L49.1289 296.051H50.4287L52.4625 298.926C52.9824 299.66 53.3341 300.241 53.5941 300.73L56.7748 296.051H58.044L54.2822 301.51L58.1052 307H56.7901L54.7104 304.064C54.3434 303.544 53.8999 302.871 53.6247 302.382L50.4287 307H49.1442L52.9519 301.541ZM31.7686 325H30.6675V314.051H34.7504C36.9678 314.051 38.3134 315.274 38.3134 317.216C38.3134 318.792 37.4877 319.893 36.0808 320.275L38.4205 325H37.1971L34.9645 320.458H31.7686V325ZM31.7686 315.045V319.464H34.781C36.2949 319.464 37.1818 318.639 37.1818 317.247C37.1818 315.825 36.249 315.045 34.7504 315.045H31.7686ZM44.9767 314.907C42.4536 314.907 40.8632 316.773 40.8632 319.571C40.8632 322.416 42.5453 324.144 45.0073 324.144C46.8423 324.144 48.6314 323.257 48.6314 320.627V320.061H44.6709V319.082H49.6713V325.015H48.7997L48.6926 323.272C48.1115 324.358 46.7353 325.184 44.9614 325.184C41.8572 325.184 39.7163 322.951 39.7163 319.571C39.7163 316.223 41.8572 313.868 44.992 313.868C47.3011 313.868 49.0902 315.183 49.5184 317.171H48.3256C47.8669 315.672 46.5823 314.907 44.9767 314.907ZM51.858 325V314.051H55.8645C57.9747 314.051 59.2745 315.122 59.2745 316.88C59.2745 318.165 58.7087 319.036 57.5771 319.48C58.8464 319.893 59.4886 320.779 59.4886 322.125C59.4886 323.884 58.1735 325 56.0938 325H51.858ZM55.8492 315.03H52.959V319.036H55.9868C57.3631 319.036 58.1429 318.272 58.1429 316.972C58.1429 315.748 57.3172 315.03 55.8492 315.03ZM56.0938 320H52.959V324.006H56.0938C57.5313 324.006 58.3723 323.257 58.3723 321.988C58.3723 320.749 57.516 320 56.0938 320ZM35.1327 344.168C32.0744 344.168 29.9947 341.89 29.9947 338.526C29.9947 335.161 32.105 332.868 35.1939 332.868C37.5488 332.868 39.3992 334.29 39.8426 336.461H38.6651C38.2064 334.886 36.8607 333.923 35.148 333.923C32.7472 333.923 31.1416 335.758 31.1416 338.526C31.1416 341.278 32.7472 343.113 35.148 343.113C36.876 343.113 38.2523 342.18 38.7263 340.712H39.9038C39.3992 342.777 37.4877 344.168 35.1327 344.168ZM42.8936 344H41.8078V333.051H42.8936L46.8847 342.7L50.8759 333.051H51.9769V344H50.8912V338.801C50.8912 336.889 50.9217 336.048 50.9829 335.299L47.4199 344H46.3648L42.8018 335.345C42.863 335.758 42.8936 336.966 42.8936 338.633V344ZM57.1741 339.428L53.4582 333.051H54.6968L57.4034 337.776C57.5258 338.006 57.6175 338.189 57.7246 338.434C57.8622 338.159 57.8622 338.159 58.061 337.776L60.737 333.051H61.9451L58.2751 339.428V344H57.1741V339.428ZM64.5324 333.051V339.642L69.8081 333.051H71.1232L67.4072 337.684L71.1843 344H69.8998L66.6885 338.602L64.5324 341.278V344H63.4314V333.051H64.5324Z" fill="black"/>
<path d="M91.1122 302.428H86.9528V307H84.9955V295.822H91.9074V297.626H86.9528V300.669H91.1122V302.428ZM93.6718 307V295.822H98.1217C100.324 295.822 101.669 296.969 101.669 298.834C101.669 300.073 101.119 300.96 100.064 301.403C101.241 301.786 101.838 302.672 101.838 303.972C101.838 305.884 100.507 307 98.1981 307H93.6718ZM97.9535 297.55H95.6291V300.593H97.9993C99.0698 300.593 99.6661 300.027 99.6661 299.033C99.6661 298.07 99.0545 297.55 97.9535 297.55ZM98.1217 302.244H95.6291V305.272H98.1217C99.2227 305.272 99.8344 304.737 99.8344 303.728C99.8344 302.779 99.2074 302.244 98.1217 302.244ZM109.627 303.712L107.211 307H104.978L107.654 303.437C107.379 303.513 107.088 303.559 106.813 303.559C104.504 303.559 102.944 301.938 102.944 299.675C102.944 297.29 104.718 295.623 107.104 295.623C109.52 295.623 111.324 297.397 111.324 299.691C111.324 301.036 110.881 302.015 109.627 303.712ZM109.321 299.675C109.321 298.314 108.419 297.366 107.104 297.366C105.819 297.366 104.917 298.314 104.917 299.675C104.917 301.021 105.819 301.954 107.104 301.954C108.434 301.954 109.321 301.021 109.321 299.675ZM120.228 306.985L112.475 307V305.532L116.13 302.443C117.644 301.159 118.149 300.425 118.149 299.354C118.149 298.085 117.46 297.366 116.283 297.366C115.06 297.366 114.295 298.223 114.28 299.66H112.338C112.353 297.213 113.913 295.623 116.283 295.623C118.668 295.623 120.152 296.984 120.152 299.247C120.152 300.807 119.295 301.984 117.598 303.437L115.58 305.165H120.228V306.985ZM124.842 301.464H123.481V300.195L126.356 297.55H121.707V295.822H128.802V297.381L126.08 299.889C127.793 300.226 129.123 301.48 129.123 303.452C129.123 305.746 127.334 307.199 125.071 307.199C122.884 307.199 121.187 305.853 121.187 303.437H123.114C123.114 304.722 123.909 305.456 125.102 305.456C126.325 305.456 127.136 304.66 127.136 303.422C127.136 302.29 126.402 301.464 124.842 301.464ZM135.551 307.184C132.294 307.184 130.184 304.92 130.184 301.418C130.184 297.947 132.37 295.638 135.643 295.638C138.288 295.638 140.261 297.183 140.643 299.583H138.579C138.197 298.284 137.08 297.519 135.597 297.519C133.533 297.519 132.233 299.018 132.233 301.403C132.233 303.773 133.548 305.303 135.597 305.303C137.111 305.303 138.273 304.507 138.64 303.269H140.674C140.246 305.624 138.197 307.184 135.551 307.184ZM92.2132 324.985L84.4603 325V323.532L88.115 320.443C89.6289 319.159 90.1335 318.425 90.1335 317.354C90.1335 316.085 89.4454 315.366 88.2679 315.366C87.0446 315.366 86.28 316.223 86.2647 317.66H84.3226C84.3379 315.213 85.8977 313.623 88.2679 313.623C90.6534 313.623 92.1367 314.984 92.1367 317.247C92.1367 318.807 91.2804 319.984 89.583 321.437L87.5645 323.165H92.2132V324.985ZM97.1383 325.184C94.7987 325.184 93.2542 323.685 93.2542 321.422H95.1963C95.1963 322.691 95.9456 323.44 97.1842 323.44C98.4993 323.44 99.3404 322.584 99.3404 321.223C99.3404 319.923 98.5605 319.036 97.2148 319.036C96.3585 319.036 95.5786 319.464 95.181 320.045L93.453 319.678L94.8293 313.822H100.655V315.626H96.2361L95.6397 317.95C96.175 317.599 96.8478 317.4 97.6124 317.4C99.845 317.4 101.328 318.914 101.328 321.116C101.328 323.532 99.6309 325.184 97.1383 325.184ZM104.33 315.58H101.883V313.822H106.211V325H104.33V315.58ZM118.666 315.58H116.219V313.822H120.547V325H118.666V315.58ZM131.105 322.874H129.744V325H127.894V322.874H122.22V321.162L127.282 313.822H129.744V321.162H131.105V322.874ZM124.3 321.162H127.894V315.932L124.3 321.162ZM133.732 317.109L136.148 313.822H138.381L135.704 317.385C135.98 317.308 136.27 317.262 136.546 317.262C138.855 317.262 140.414 318.883 140.414 321.146C140.414 323.532 138.64 325.199 136.255 325.199C133.839 325.199 132.034 323.425 132.034 321.131C132.034 319.786 132.478 318.807 133.732 317.109ZM134.038 321.146C134.038 322.507 134.94 323.456 136.255 323.456C137.524 323.456 138.442 322.507 138.442 321.146C138.442 319.801 137.539 318.868 136.255 318.868C134.925 318.868 134.038 319.801 134.038 321.146ZM151.458 317.109L153.874 313.822H156.106L153.43 317.385C153.706 317.308 153.996 317.262 154.271 317.262C156.58 317.262 158.14 318.883 158.14 321.146C158.14 323.532 156.366 325.199 153.981 325.199C151.565 325.199 149.76 323.425 149.76 321.131C149.76 319.786 150.204 318.807 151.458 317.109ZM151.764 321.146C151.764 322.507 152.666 323.456 153.981 323.456C155.25 323.456 156.168 322.507 156.168 321.146C156.168 319.801 155.265 318.868 153.981 318.868C152.65 318.868 151.764 319.801 151.764 321.146ZM159.35 319.434C159.35 315.963 161.216 313.608 164.075 313.608C166.935 313.608 168.816 315.963 168.816 319.434C168.816 322.89 167.042 325.199 164.075 325.199C161.109 325.199 159.35 322.89 159.35 319.434ZM161.277 319.434C161.277 322.018 162.317 323.471 164.075 323.471C165.849 323.471 166.889 322.018 166.889 319.434C166.889 316.788 165.849 315.336 164.075 315.336C162.317 315.336 161.277 316.788 161.277 319.434ZM84.4144 338.434C84.4144 334.963 86.28 332.608 89.1395 332.608C91.9991 332.608 93.88 334.963 93.88 338.434C93.88 341.89 92.1061 344.199 89.1395 344.199C86.1729 344.199 84.4144 341.89 84.4144 338.434ZM86.3411 338.434C86.3411 341.018 87.381 342.471 89.1395 342.471C90.9134 342.471 91.9532 341.018 91.9532 338.434C91.9532 335.788 90.9134 334.336 89.1395 334.336C87.381 334.336 86.3411 335.788 86.3411 338.434ZM112.095 341.874H110.734V344H108.883V341.874H103.21V340.162L108.272 332.822H110.734V340.162H112.095V341.874ZM105.29 340.162H108.883V334.932L105.29 340.162ZM120.766 343.985L113.013 344V342.532L116.668 339.443C118.182 338.159 118.686 337.425 118.686 336.354C118.686 335.085 117.998 334.366 116.821 334.366C115.597 334.366 114.833 335.223 114.817 336.66H112.875C112.891 334.213 114.45 332.623 116.821 332.623C119.206 332.623 120.689 333.984 120.689 336.247C120.689 337.807 119.833 338.984 118.136 340.437L116.117 342.165H120.766V343.985ZM129.665 332.822H137.693V334.626L133.64 344H131.607L135.735 334.626H129.665V332.822ZM139.675 336.109L142.091 332.822H144.324L141.648 336.385C141.923 336.308 142.214 336.262 142.489 336.262C144.798 336.262 146.358 337.883 146.358 340.146C146.358 342.532 144.584 344.199 142.198 344.199C139.782 344.199 137.978 342.425 137.978 340.131C137.978 338.786 138.421 337.807 139.675 336.109ZM139.981 340.146C139.981 341.507 140.883 342.456 142.198 342.456C143.468 342.456 144.385 341.507 144.385 340.146C144.385 338.801 143.483 337.868 142.198 337.868C140.868 337.868 139.981 338.801 139.981 340.146ZM163.61 343.985L155.857 344V342.532L159.511 339.443C161.025 338.159 161.53 337.425 161.53 336.354C161.53 335.085 160.842 334.366 159.664 334.366C158.441 334.366 157.676 335.223 157.661 336.66H155.719C155.734 334.213 157.294 332.623 159.664 332.623C162.05 332.623 163.533 333.984 163.533 336.247C163.533 337.807 162.677 338.984 160.98 340.437L158.961 342.165H163.61V343.985Z" fill="black"/>
<path d="M29.5964 36.9412C29.5964 34.9839 31.2173 33.6229 33.5722 33.6229C35.8354 33.6229 37.2729 34.8768 37.334 36.8954H35.3767C35.3308 35.932 34.6427 35.3662 33.5417 35.3662C32.3336 35.3662 31.5537 35.9473 31.5537 36.8801C31.5537 37.6752 31.9819 38.1187 32.9147 38.3328L34.6733 38.7151C36.5847 39.128 37.5175 40.1066 37.5175 41.7734C37.5175 43.8531 35.8966 45.1988 33.4346 45.1988C31.0491 45.1988 29.4893 43.9296 29.4435 41.9264H31.4008C31.4161 42.8744 32.1807 43.4402 33.4346 43.4402C34.7344 43.4402 35.5602 42.8744 35.5602 41.9416C35.5602 41.1923 35.1779 40.7489 34.2604 40.5501L32.4865 40.1525C30.5903 39.7396 29.5964 38.6539 29.5964 36.9412ZM44.1358 37.4459H46.0014V45H44.2734L44.1358 43.9907C43.677 44.7095 42.6983 45.1988 41.6891 45.1988C39.9458 45.1988 38.9213 44.0213 38.9213 42.171V37.4459H40.7869V41.5135C40.7869 42.9509 41.3527 43.532 42.3925 43.532C43.57 43.532 44.1358 42.8439 44.1358 41.4064V37.4459ZM49.7938 45H47.9282V37.4459H49.6562L49.8091 38.4245C50.2832 37.6599 51.2007 37.2165 52.2252 37.2165C54.1214 37.2165 55.1001 38.3939 55.1001 40.3513V45H53.2345V40.7948C53.2345 39.5255 52.6075 38.9139 51.6441 38.9139C50.4973 38.9139 49.7938 39.709 49.7938 40.9324V45ZM56.2624 42.7062H58.0362C58.0515 43.3638 58.5409 43.7767 59.3972 43.7767C60.2688 43.7767 60.7429 43.4249 60.7429 42.8744C60.7429 42.4921 60.5441 42.2169 59.8712 42.064L58.5103 41.7428C57.1493 41.437 56.4918 40.7948 56.4918 39.5867C56.4918 38.1034 57.7457 37.2165 59.4889 37.2165C61.1863 37.2165 62.3332 38.1952 62.3485 39.6632H60.5747C60.5594 39.0209 60.1312 38.608 59.4125 38.608C58.6785 38.608 58.2503 38.9445 58.2503 39.5102C58.2503 39.9384 58.5867 40.2137 59.229 40.3666L60.59 40.6877C61.8592 40.9783 62.5014 41.5593 62.5014 42.7215C62.5014 44.2507 61.2016 45.1988 59.336 45.1988C57.4551 45.1988 56.2624 44.1895 56.2624 42.7062ZM67.3014 45.1988C65.0535 45.1988 63.4784 43.5626 63.4784 41.2229C63.4784 38.8527 65.0229 37.2165 67.2402 37.2165C69.5034 37.2165 70.9408 38.7304 70.9408 41.0853V41.6511L65.2523 41.6664C65.3899 42.9968 66.0933 43.6696 67.332 43.6696C68.3565 43.6696 69.0293 43.272 69.2434 42.5533H70.9714C70.6503 44.2048 69.274 45.1988 67.3014 45.1988ZM67.2555 38.7457C66.1545 38.7457 65.4817 39.342 65.2982 40.4736H69.0905C69.0905 39.4338 68.3718 38.7457 67.2555 38.7457ZM74.9283 45H73.0627V39.0056H71.61V37.4459H73.0627V35.0909H74.9283V37.4459H76.3963V39.0056H74.9283V45Z" fill="black"/>
<path d="M260 372H0V558H260V372Z" fill="#FF6644"/>
<path d="M31.6844 493H30.5834V482.051H31.6844V486.929H37.6024V482.051H38.6881V493H37.6024V487.954H31.6844V493ZM47.9255 493H41.3653V482.051H47.9102V483.06H42.4663V487.006H47.4056V488H42.4663V491.991H47.9255V493ZM52.8677 487.541L49.0448 482.051H50.3446L52.3784 484.926C52.8983 485.66 53.25 486.241 53.51 486.73L56.6907 482.051H57.9599L54.1981 487.51L58.0211 493H56.706L54.6263 490.064C54.2593 489.544 53.8158 488.871 53.5406 488.382L50.3446 493H49.0601L52.8677 487.541ZM31.6844 511H30.5834V500.051H34.6663C36.8837 500.051 38.2293 501.274 38.2293 503.216C38.2293 504.792 37.4036 505.893 35.9967 506.275L38.3364 511H37.113L34.8804 506.458H31.6844V511ZM31.6844 501.045V505.464H34.6969C36.2108 505.464 37.0977 504.639 37.0977 503.247C37.0977 501.825 36.1649 501.045 34.6663 501.045H31.6844ZM44.8926 500.907C42.3695 500.907 40.7791 502.773 40.7791 505.571C40.7791 508.416 42.4612 510.144 44.9232 510.144C46.7582 510.144 48.5473 509.257 48.5473 506.627V506.061H44.5868V505.082H49.5872V511.015H48.7156L48.6085 509.272C48.0274 510.358 46.6512 511.184 44.8773 511.184C41.7731 511.184 39.6322 508.951 39.6322 505.571C39.6322 502.223 41.7731 499.868 44.9079 499.868C47.217 499.868 49.0061 501.183 49.4343 503.171H48.2415C47.7828 501.672 46.4982 500.907 44.8926 500.907ZM51.7739 511V500.051H55.7804C57.8906 500.051 59.1904 501.122 59.1904 502.88C59.1904 504.165 58.6246 505.036 57.493 505.48C58.7623 505.893 59.4045 506.779 59.4045 508.125C59.4045 509.884 58.0894 511 56.0097 511H51.7739ZM55.7651 501.03H52.8749V505.036H55.9027C57.2789 505.036 58.0588 504.272 58.0588 502.972C58.0588 501.748 57.2331 501.03 55.7651 501.03ZM56.0097 506H52.8749V510.006H56.0097C57.4472 510.006 58.2882 509.257 58.2882 507.988C58.2882 506.749 57.4319 506 56.0097 506ZM35.0486 530.168C31.9903 530.168 29.9106 527.89 29.9106 524.526C29.9106 521.161 32.0209 518.868 35.1098 518.868C37.4647 518.868 39.315 520.29 39.7585 522.461H38.581C38.1223 520.886 36.7766 519.923 35.0639 519.923C32.6631 519.923 31.0575 521.758 31.0575 524.526C31.0575 527.278 32.6631 529.113 35.0639 529.113C36.7919 529.113 38.1682 528.18 38.6422 526.712H39.8197C39.315 528.777 37.4036 530.168 35.0486 530.168ZM42.8095 530H41.7237V519.051H42.8095L46.8006 528.7L50.7918 519.051H51.8928V530H50.8071V524.801C50.8071 522.889 50.8376 522.048 50.8988 521.299L47.3358 530H46.2807L42.7177 521.345C42.7789 521.758 42.8095 522.966 42.8095 524.633V530ZM57.09 525.428L53.374 519.051H54.6127L57.3193 523.776C57.4417 524.006 57.5334 524.189 57.6405 524.434C57.7781 524.159 57.7781 524.159 57.9769 523.776L60.6529 519.051H61.861L58.191 525.428V530H57.09V525.428ZM64.4483 519.051V525.642L69.724 519.051H71.039L67.3231 523.684L71.1002 530H69.8157L66.6044 524.602L64.4483 527.278V530H63.3473V519.051H64.4483Z" fill="white"/>
<path d="M91.0282 488.428H86.8688V493H84.9115V481.822H91.8234V483.626H86.8688V486.669H91.0282V488.428ZM99.7045 488.428H95.5451V493H93.5878V481.822H100.5V483.626H95.5451V486.669H99.7045V488.428ZM103.273 485.109L105.689 481.822H107.922L105.246 485.385C105.521 485.308 105.812 485.262 106.087 485.262C108.396 485.262 109.956 486.883 109.956 489.146C109.956 491.532 108.182 493.199 105.796 493.199C103.38 493.199 101.576 491.425 101.576 489.131C101.576 487.786 102.019 486.807 103.273 485.109ZM103.579 489.146C103.579 490.507 104.481 491.456 105.796 491.456C107.066 491.456 107.983 490.507 107.983 489.146C107.983 487.801 107.081 486.868 105.796 486.868C104.466 486.868 103.579 487.801 103.579 489.146ZM112.756 485.109L115.172 481.822H117.405L114.729 485.385C115.004 485.308 115.294 485.262 115.57 485.262C117.879 485.262 119.439 486.883 119.439 489.146C119.439 491.532 117.665 493.199 115.279 493.199C112.863 493.199 111.059 491.425 111.059 489.131C111.059 487.786 111.502 486.807 112.756 485.109ZM113.062 489.146C113.062 490.507 113.964 491.456 115.279 491.456C116.548 491.456 117.466 490.507 117.466 489.146C117.466 487.801 116.564 486.868 115.279 486.868C113.949 486.868 113.062 487.801 113.062 489.146ZM129.304 490.874H127.943V493H126.092V490.874H120.419V489.162L125.481 481.822H127.943V489.162H129.304V490.874ZM122.499 489.162H126.092V483.932L122.499 489.162ZM139.1 490.874H137.739V493H135.889V490.874H130.215V489.162L135.277 481.822H137.739V489.162H139.1V490.874ZM132.295 489.162H135.889V483.932L132.295 489.162ZM92.1292 510.985L84.3763 511V509.532L88.031 506.443C89.5449 505.159 90.0495 504.425 90.0495 503.354C90.0495 502.085 89.3614 501.366 88.1839 501.366C86.9606 501.366 86.196 502.223 86.1807 503.66H84.2386C84.2539 501.213 85.8137 499.623 88.1839 499.623C90.5694 499.623 92.0527 500.984 92.0527 503.247C92.0527 504.807 91.1964 505.984 89.499 507.437L87.4805 509.165H92.1292V510.985ZM97.0544 511.184C94.7147 511.184 93.1702 509.685 93.1702 507.422H95.1123C95.1123 508.691 95.8616 509.44 97.1002 509.44C98.4153 509.44 99.2564 508.584 99.2564 507.223C99.2564 505.923 98.4765 505.036 97.1308 505.036C96.2745 505.036 95.4946 505.464 95.097 506.045L93.369 505.678L94.7453 499.822H100.571V501.626H96.1521L95.5558 503.95C96.091 503.599 96.7638 503.4 97.5284 503.4C99.761 503.4 101.244 504.914 101.244 507.116C101.244 509.532 99.5469 511.184 97.0544 511.184ZM106.223 511.184C103.884 511.184 102.339 509.685 102.339 507.422H104.281C104.281 508.691 105.031 509.44 106.269 509.44C107.584 509.44 108.425 508.584 108.425 507.223C108.425 505.923 107.646 505.036 106.3 505.036C105.444 505.036 104.664 505.464 104.266 506.045L102.538 505.678L103.914 499.822H109.741V501.626H105.321L104.725 503.95C105.26 503.599 105.933 503.4 106.697 503.4C108.93 503.4 110.413 504.914 110.413 507.116C110.413 509.532 108.716 511.184 106.223 511.184ZM122.091 501.58H119.645V499.822H123.972V511H122.091V501.58ZM125.875 505.434C125.875 501.963 127.741 499.608 130.6 499.608C133.46 499.608 135.341 501.963 135.341 505.434C135.341 508.89 133.567 511.199 130.6 511.199C127.634 511.199 125.875 508.89 125.875 505.434ZM127.802 505.434C127.802 508.018 128.842 509.471 130.6 509.471C132.374 509.471 133.414 508.018 133.414 505.434C133.414 502.788 132.374 501.336 130.6 501.336C128.842 501.336 127.802 502.788 127.802 505.434ZM144.456 510.985L136.703 511V509.532L140.358 506.443C141.871 505.159 142.376 504.425 142.376 503.354C142.376 502.085 141.688 501.366 140.511 501.366C139.287 501.366 138.523 502.223 138.507 503.66H136.565C136.581 501.213 138.14 499.623 140.511 499.623C142.896 499.623 144.379 500.984 144.379 503.247C144.379 504.807 143.523 505.984 141.826 507.437L139.807 509.165H144.456V510.985ZM155.495 503.109L157.911 499.822H160.144L157.468 503.385C157.743 503.308 158.034 503.262 158.309 503.262C160.618 503.262 162.178 504.883 162.178 507.146C162.178 509.532 160.404 511.199 158.019 511.199C155.602 511.199 153.798 509.425 153.798 507.131C153.798 505.786 154.241 504.807 155.495 503.109ZM155.801 507.146C155.801 508.507 156.703 509.456 158.019 509.456C159.288 509.456 160.205 508.507 160.205 507.146C160.205 505.801 159.303 504.868 158.019 504.868C156.688 504.868 155.801 505.801 155.801 507.146ZM163.372 507.835C163.372 506.504 164.122 505.434 165.284 504.99C164.305 504.547 163.77 503.706 163.77 502.62C163.77 500.846 165.345 499.623 167.654 499.623C169.948 499.623 171.492 500.831 171.492 502.651C171.492 503.736 170.942 504.577 169.948 504.99C171.125 505.403 171.89 506.489 171.89 507.835C171.89 509.853 170.223 511.184 167.624 511.184C165.039 511.184 163.372 509.868 163.372 507.835ZM165.544 502.788C165.544 503.721 166.354 504.317 167.624 504.317C168.877 504.317 169.673 503.736 169.673 502.804C169.673 501.871 168.877 501.29 167.624 501.29C166.354 501.29 165.544 501.871 165.544 502.788ZM165.284 507.697C165.284 508.783 166.186 509.456 167.639 509.456C169.061 509.456 169.963 508.783 169.963 507.697C169.963 506.611 169.061 505.938 167.624 505.938C166.186 505.938 165.284 506.611 165.284 507.697ZM84.3304 524.434C84.3304 520.963 86.196 518.608 89.0556 518.608C91.9151 518.608 93.796 520.963 93.796 524.434C93.796 527.89 92.0222 530.199 89.0556 530.199C86.089 530.199 84.3304 527.89 84.3304 524.434ZM86.2572 524.434C86.2572 527.018 87.297 528.471 89.0556 528.471C90.8294 528.471 91.8692 527.018 91.8692 524.434C91.8692 521.788 90.8294 520.336 89.0556 520.336C87.297 520.336 86.2572 521.788 86.2572 524.434ZM104.946 522.109L107.362 518.822H109.595L106.919 522.385C107.194 522.308 107.484 522.262 107.76 522.262C110.069 522.262 111.628 523.883 111.628 526.146C111.628 528.532 109.855 530.199 107.469 530.199C105.053 530.199 103.248 528.425 103.248 526.131C103.248 524.786 103.692 523.807 104.946 522.109ZM105.252 526.146C105.252 527.507 106.154 528.456 107.469 528.456C108.738 528.456 109.656 527.507 109.656 526.146C109.656 524.801 108.754 523.868 107.469 523.868C106.139 523.868 105.252 524.801 105.252 526.146ZM112.838 524.434C112.838 520.963 114.704 518.608 117.563 518.608C120.423 518.608 122.304 520.963 122.304 524.434C122.304 527.89 120.53 530.199 117.563 530.199C114.597 530.199 112.838 527.89 112.838 524.434ZM114.765 524.434C114.765 527.018 115.805 528.471 117.563 528.471C119.337 528.471 120.377 527.018 120.377 524.434C120.377 521.788 119.337 520.336 117.563 520.336C115.805 520.336 114.765 521.788 114.765 524.434ZM131.313 518.822H139.341V520.626L135.289 530H133.255L137.384 520.626H131.313V518.822ZM143.499 524.464H142.138V523.195L145.013 520.55H140.364V518.822H147.46V520.381L144.738 522.889C146.451 523.226 147.781 524.48 147.781 526.452C147.781 528.746 145.992 530.199 143.729 530.199C141.542 530.199 139.844 528.853 139.844 526.437H141.771C141.771 527.722 142.566 528.456 143.759 528.456C144.983 528.456 145.793 527.66 145.793 526.422C145.793 525.29 145.059 524.464 143.499 524.464ZM157.146 524.434C157.146 520.963 159.011 518.608 161.871 518.608C164.73 518.608 166.611 520.963 166.611 524.434C166.611 527.89 164.837 530.199 161.871 530.199C158.904 530.199 157.146 527.89 157.146 524.434ZM159.072 524.434C159.072 527.018 160.112 528.471 161.871 528.471C163.645 528.471 164.684 527.018 164.684 524.434C164.684 521.788 163.645 520.336 161.871 520.336C160.112 520.336 159.072 521.788 159.072 524.434Z" fill="white"/>
<path d="M35.2168 417.184C31.9597 417.184 29.8494 414.92 29.8494 411.418C29.8494 407.947 32.0362 405.638 35.3086 405.638C37.9541 405.638 39.9267 407.183 40.309 409.583H38.2446C37.8623 408.284 36.746 407.519 35.2627 407.519C33.1983 407.519 31.8985 409.018 31.8985 411.403C31.8985 413.773 33.2136 415.303 35.2627 415.303C36.7766 415.303 37.9388 414.507 38.3058 413.269H40.3396C39.9114 415.624 37.8623 417.184 35.2168 417.184ZM43.9182 417.199C42.3126 417.199 41.3339 416.266 41.3339 414.844C41.3339 413.452 42.3432 412.581 44.1323 412.443L46.3955 412.275V412.107C46.3955 411.082 45.7838 410.669 44.8357 410.669C43.7347 410.669 43.1231 411.128 43.1231 411.923H41.5327C41.5327 410.287 42.8784 409.216 44.9275 409.216C46.9613 409.216 48.2152 410.317 48.2152 412.412V417H46.579L46.4414 415.884C46.1202 416.664 45.0957 417.199 43.9182 417.199ZM44.5299 415.792C45.6768 415.792 46.4108 415.104 46.4108 413.942V413.544L44.8357 413.666C43.6736 413.773 43.2301 414.156 43.2301 414.767C43.2301 415.456 43.6889 415.792 44.5299 415.792ZM51.9136 417H50.048V409.446H51.7606L51.9136 410.333C52.2959 409.706 53.0604 409.216 54.1462 409.216C55.293 409.216 56.0882 409.782 56.4858 410.654C56.8681 409.782 57.755 409.216 58.9019 409.216C60.7369 409.216 61.7462 410.317 61.7462 412.061V417H59.8959V412.55C59.8959 411.464 59.3148 410.899 58.4279 410.899C57.5256 410.899 56.8375 411.48 56.8375 412.718V417H54.9719V412.535C54.9719 411.48 54.4061 410.914 53.5192 410.914C52.6323 410.914 51.9136 411.495 51.9136 412.718V417ZM63.5776 420.502V409.446H65.3056L65.4279 410.593C65.8867 409.721 66.8806 409.216 68.0275 409.216C70.1531 409.216 71.5599 410.761 71.5599 413.131C71.5599 415.486 70.2754 417.199 68.0275 417.199C66.8959 417.199 65.9173 416.755 65.4432 415.991V420.502H63.5776ZM65.4585 413.223C65.4585 414.584 66.2995 415.517 67.5841 415.517C68.8992 415.517 69.679 414.569 69.679 413.223C69.679 411.877 68.8992 410.914 67.5841 410.914C66.2995 410.914 65.4585 411.862 65.4585 413.223ZM78.2912 417V411.006H75.2022V417H73.3519V411.006H72.2662V409.446H73.3519V408.528C73.3519 406.479 74.4224 405.623 75.9515 405.623C76.2421 405.623 76.5938 405.638 76.9149 405.699V407.29H76.2574C75.4163 407.29 75.2022 407.779 75.2022 408.528V409.446H80.1568V417H78.2912ZM79.224 407.901C78.597 407.901 78.1077 407.412 78.1077 406.785C78.1077 406.173 78.597 405.684 79.224 405.684C79.8356 405.684 80.325 406.173 80.325 406.785C80.325 407.412 79.8356 407.901 79.224 407.901ZM86.8205 409.415V411.143H86.1324C84.7867 411.143 83.9457 411.862 83.9457 413.33V417H82.0801V409.461H83.8386L83.9457 410.562C84.2668 409.813 84.9855 409.308 85.9948 409.308C86.2547 409.308 86.5147 409.339 86.8205 409.415ZM91.2089 417.199C88.961 417.199 87.386 415.563 87.386 413.223C87.386 410.853 88.9304 409.216 91.1477 409.216C93.4109 409.216 94.8484 410.73 94.8484 413.085V413.651L89.1598 413.666C89.2974 414.997 90.0009 415.67 91.2395 415.67C92.264 415.67 92.9369 415.272 93.151 414.553H94.8789C94.5578 416.205 93.1815 417.199 91.2089 417.199ZM91.163 410.746C90.062 410.746 89.3892 411.342 89.2057 412.474H92.998C92.998 411.434 92.2793 410.746 91.163 410.746Z" fill="white"/>
<path d="M520 372H260V558H520V372Z" fill="#AC23CA"/>
<path d="M291.684 492.767H290.583V481.818H291.684V486.696H297.602V481.818H298.688V492.767H297.602V487.72H291.684V492.767ZM307.925 492.767H301.365V481.818H307.91V482.827H302.466V486.772H307.405V487.766H302.466V491.757H307.925V492.767ZM312.868 487.307L309.045 481.818H310.344L312.378 484.693C312.898 485.427 313.25 486.008 313.51 486.497L316.691 481.818H317.96L314.198 487.277L318.021 492.767H316.706L314.626 489.831C314.259 489.311 313.816 488.638 313.54 488.149L310.344 492.767H309.06L312.868 487.307ZM291.684 510.767H290.583V499.818H294.666C296.884 499.818 298.229 501.041 298.229 502.983C298.229 504.558 297.403 505.659 295.997 506.042L298.336 510.767H297.113L294.88 506.225H291.684V510.767ZM291.684 500.812V505.231H294.697C296.211 505.231 297.098 504.405 297.098 503.014C297.098 501.592 296.165 500.812 294.666 500.812H291.684ZM304.892 500.674C302.369 500.674 300.779 502.54 300.779 505.338C300.779 508.182 302.461 509.91 304.923 509.91C306.758 509.91 308.547 509.023 308.547 506.393V505.827H304.587V504.849H309.587V510.782H308.715L308.608 509.039C308.027 510.124 306.651 510.95 304.877 510.95C301.773 510.95 299.632 508.718 299.632 505.338C299.632 501.989 301.773 499.634 304.908 499.634C307.217 499.634 309.006 500.949 309.434 502.937H308.241C307.783 501.439 306.498 500.674 304.892 500.674ZM311.774 510.767V499.818H315.78C317.89 499.818 319.19 500.888 319.19 502.647C319.19 503.931 318.625 504.803 317.493 505.246C318.762 505.659 319.404 506.546 319.404 507.892C319.404 509.65 318.089 510.767 316.01 510.767H311.774ZM315.765 500.796H312.875V504.803H315.903C317.279 504.803 318.059 504.038 318.059 502.738C318.059 501.515 317.233 500.796 315.765 500.796ZM316.01 505.766H312.875V509.773H316.01C317.447 509.773 318.288 509.023 318.288 507.754C318.288 506.516 317.432 505.766 316.01 505.766ZM295.049 529.935C291.99 529.935 289.91 527.656 289.91 524.292C289.91 520.928 292.021 518.634 295.11 518.634C297.465 518.634 299.315 520.056 299.758 522.228H298.581C298.122 520.653 296.776 519.689 295.064 519.689C292.663 519.689 291.057 521.524 291.057 524.292C291.057 527.045 292.663 528.88 295.064 528.88C296.792 528.88 298.168 527.947 298.642 526.479H299.82C299.315 528.543 297.403 529.935 295.049 529.935ZM302.809 529.767H301.724V518.818H302.809L306.8 528.467L310.792 518.818H311.893V529.767H310.807V524.567C310.807 522.656 310.838 521.815 310.899 521.066L307.336 529.767H306.281L302.718 521.112C302.779 521.524 302.809 522.732 302.809 524.399V529.767ZM317.09 525.194L313.374 518.818H314.613L317.319 523.543C317.442 523.772 317.533 523.956 317.64 524.2C317.778 523.925 317.778 523.925 317.977 523.543L320.653 518.818H321.861L318.191 525.194V529.767H317.09V525.194ZM324.448 518.818V525.409L329.724 518.818H331.039L327.323 523.451L331.1 529.767H329.816L326.604 524.369L324.448 527.045V529.767H323.347V518.818H324.448Z" fill="white"/>
<path d="M345.875 492.767H343.841L347.878 481.588H349.881L353.918 492.767H351.854L350.952 490.182H346.777L345.875 492.767ZM348.627 484.922L347.358 488.531H350.386L349.101 484.922C349.01 484.631 348.903 484.295 348.872 484.066C348.826 484.28 348.734 484.616 348.627 484.922ZM359.493 492.95C356.236 492.95 354.125 490.687 354.125 487.185C354.125 483.714 356.312 481.405 359.584 481.405C362.23 481.405 364.203 482.949 364.585 485.35H362.52C362.138 484.05 361.022 483.286 359.539 483.286C357.474 483.286 356.174 484.784 356.174 487.17C356.174 489.54 357.489 491.069 359.539 491.069C361.052 491.069 362.215 490.274 362.582 489.035H364.615C364.187 491.39 362.138 492.95 359.493 492.95ZM373.588 492.751L365.836 492.767V491.299L369.49 488.21C371.004 486.925 371.509 486.191 371.509 485.121C371.509 483.852 370.821 483.133 369.643 483.133C368.42 483.133 367.655 483.989 367.64 485.427H365.698C365.713 482.98 367.273 481.39 369.643 481.39C372.029 481.39 373.512 482.751 373.512 485.014C373.512 486.573 372.656 487.751 370.958 489.204L368.94 490.932H373.588V492.751ZM378.202 487.231H376.841V485.962L379.716 483.316H375.067V481.588H382.163V483.148L379.441 485.656C381.153 485.992 382.484 487.246 382.484 489.219C382.484 491.513 380.695 492.965 378.431 492.965C376.245 492.965 374.547 491.62 374.547 489.204H376.474C376.474 490.488 377.269 491.222 378.462 491.222C379.685 491.222 380.496 490.427 380.496 489.188C380.496 488.057 379.762 487.231 378.202 487.231ZM388.911 492.95C385.654 492.95 383.544 490.687 383.544 487.185C383.544 483.714 385.731 481.405 389.003 481.405C391.649 481.405 393.621 482.949 394.004 485.35H391.939C391.557 484.05 390.441 483.286 388.957 483.286C386.893 483.286 385.593 484.784 385.593 487.17C385.593 489.54 386.908 491.069 388.957 491.069C390.471 491.069 391.633 490.274 392 489.035H394.034C393.606 491.39 391.557 492.95 388.911 492.95ZM396.275 492.767H394.241L398.278 481.588H400.281L404.319 492.767H402.254L401.352 490.182H397.177L396.275 492.767ZM399.028 484.922L397.758 488.531H400.786L399.502 484.922C399.41 484.631 399.303 484.295 399.272 484.066C399.226 484.28 399.135 484.616 399.028 484.922ZM346.639 501.347H344.193V499.588H348.52V510.767H346.639V501.347ZM350.007 499.588H358.035V501.393L353.983 510.767H351.949L356.078 501.393H350.007V499.588ZM366.54 510.751L358.787 510.767V509.299L362.442 506.21C363.956 504.925 364.46 504.191 364.46 503.121C364.46 501.852 363.772 501.133 362.595 501.133C361.371 501.133 360.607 501.989 360.591 503.427H358.649C358.665 500.98 360.224 499.39 362.595 499.39C364.98 499.39 366.463 500.751 366.463 503.014C366.463 504.573 365.607 505.751 363.91 507.204L361.891 508.932H366.54V510.751ZM379.292 505.231H377.931V503.962L380.806 501.316H376.157V499.588H383.253V501.148L380.531 503.656C382.244 503.992 383.574 505.246 383.574 507.219C383.574 509.513 381.785 510.965 379.522 510.965C377.335 510.965 375.637 509.62 375.637 507.204H377.564C377.564 508.488 378.359 509.222 379.552 509.222C380.775 509.222 381.586 508.427 381.586 507.188C381.586 506.057 380.852 505.231 379.292 505.231ZM388.489 510.95C386.149 510.95 384.605 509.452 384.605 507.188H386.547C386.547 508.458 387.296 509.207 388.535 509.207C389.85 509.207 390.691 508.351 390.691 506.99C390.691 505.69 389.911 504.803 388.566 504.803C387.709 504.803 386.929 505.231 386.532 505.812L384.804 505.445L386.18 499.588H392.006V501.393H387.587L386.991 503.717C387.526 503.365 388.199 503.167 388.963 503.167C391.196 503.167 392.679 504.681 392.679 506.883C392.679 509.299 390.982 510.95 388.489 510.95ZM409.847 510.751L402.094 510.767V509.299L405.749 506.21C407.262 504.925 407.767 504.191 407.767 503.121C407.767 501.852 407.079 501.133 405.901 501.133C404.678 501.133 403.914 501.989 403.898 503.427H401.956C401.971 500.98 403.531 499.39 405.901 499.39C408.287 499.39 409.77 500.751 409.77 503.014C409.77 504.573 408.914 505.751 407.217 507.204L405.198 508.932H409.847V510.751ZM411.053 505.2C411.053 501.729 412.918 499.374 415.778 499.374C418.637 499.374 420.518 501.729 420.518 505.2C420.518 508.656 418.745 510.965 415.778 510.965C412.811 510.965 411.053 508.656 411.053 505.2ZM412.98 505.2C412.98 507.785 414.019 509.237 415.778 509.237C417.552 509.237 418.592 507.785 418.592 505.2C418.592 502.555 417.552 501.102 415.778 501.102C414.019 501.102 412.98 502.555 412.98 505.2ZM429.633 510.751L421.881 510.767V509.299L425.535 506.21C427.049 504.925 427.554 504.191 427.554 503.121C427.554 501.852 426.866 501.133 425.688 501.133C424.465 501.133 423.7 501.989 423.685 503.427H421.743C421.758 500.98 423.318 499.39 425.688 499.39C428.074 499.39 429.557 500.751 429.557 503.014C429.557 504.573 428.701 505.751 427.003 507.204L424.985 508.932H429.633V510.751ZM346.639 520.347H344.193V518.588H348.52V529.767H346.639V520.347ZM354.172 529.95C351.833 529.95 350.288 528.452 350.288 526.188H352.23C352.23 527.458 352.979 528.207 354.218 528.207C355.533 528.207 356.374 527.351 356.374 525.99C356.374 524.69 355.594 523.803 354.249 523.803C353.392 523.803 352.612 524.231 352.215 524.812L350.487 524.445L351.863 518.588H357.689V520.393H353.27L352.674 522.717C353.209 522.365 353.882 522.167 354.646 522.167C356.879 522.167 358.362 523.681 358.362 525.883C358.362 528.299 356.665 529.95 354.172 529.95ZM367.716 526.601C367.716 525.271 368.465 524.2 369.627 523.757C368.649 523.314 368.113 522.472 368.113 521.387C368.113 519.613 369.688 518.39 371.997 518.39C374.291 518.39 375.836 519.598 375.836 521.417C375.836 522.503 375.285 523.344 374.291 523.757C375.469 524.17 376.233 525.256 376.233 526.601C376.233 528.62 374.566 529.95 371.967 529.95C369.383 529.95 367.716 528.635 367.716 526.601ZM369.887 521.555C369.887 522.488 370.698 523.084 371.967 523.084C373.221 523.084 374.016 522.503 374.016 521.57C374.016 520.637 373.221 520.056 371.967 520.056C370.698 520.056 369.887 520.637 369.887 521.555ZM369.627 526.464C369.627 527.549 370.529 528.222 371.982 528.222C373.404 528.222 374.306 527.549 374.306 526.464C374.306 525.378 373.404 524.705 371.967 524.705C370.529 524.705 369.627 525.378 369.627 526.464ZM380.935 524.231H379.574V522.962L382.449 520.316H377.8V518.588H384.895V520.148L382.173 522.656C383.886 522.992 385.217 524.246 385.217 526.219C385.217 528.513 383.427 529.965 381.164 529.965C378.978 529.965 377.28 528.62 377.28 526.204H379.207C379.207 527.488 380.002 528.222 381.195 528.222C382.418 528.222 383.229 527.427 383.229 526.188C383.229 525.057 382.495 524.231 380.935 524.231ZM394.581 524.2C394.581 520.729 396.447 518.374 399.306 518.374C402.166 518.374 404.047 520.729 404.047 524.2C404.047 527.656 402.273 529.965 399.306 529.965C396.34 529.965 394.581 527.656 394.581 524.2ZM396.508 524.2C396.508 526.785 397.548 528.237 399.306 528.237C401.08 528.237 402.12 526.785 402.12 524.2C402.12 521.555 401.08 520.102 399.306 520.102C397.548 520.102 396.508 521.555 396.508 524.2ZM421.405 529.751L413.652 529.767V528.299L417.307 525.21C418.821 523.925 419.325 523.191 419.325 522.121C419.325 520.852 418.637 520.133 417.46 520.133C416.237 520.133 415.472 520.989 415.457 522.427H413.515C413.53 519.98 415.09 518.39 417.46 518.39C419.845 518.39 421.329 519.751 421.329 522.014C421.329 523.573 420.472 524.751 418.775 526.204L416.756 527.932H421.405V529.751ZM425.025 520.347H422.578V518.588H426.906V529.767H425.025V520.347Z" fill="white"/>
<path d="M300.691 411.403C300.691 414.798 298.459 417.184 295.247 417.184C292.051 417.184 289.849 414.813 289.849 411.403C289.849 408.008 292.067 405.623 295.263 405.623C298.459 405.623 300.691 407.993 300.691 411.403ZM298.627 411.403C298.627 409.018 297.312 407.504 295.263 407.504C293.214 407.504 291.898 409.018 291.898 411.403C291.898 413.789 293.214 415.303 295.263 415.303C297.312 415.303 298.627 413.758 298.627 411.403ZM306.978 409.415V411.143H306.29C304.944 411.143 304.103 411.862 304.103 413.33V417H302.238V409.461H303.996L304.103 410.562C304.424 409.813 305.143 409.308 306.152 409.308C306.412 409.308 306.672 409.339 306.978 409.415ZM307.544 413.208C307.544 410.868 309.088 409.216 311.321 409.216C313.385 409.216 314.792 410.363 314.991 412.183H313.125C312.911 411.327 312.284 410.883 311.397 410.883C310.204 410.883 309.409 411.786 309.409 413.208C309.409 414.63 310.143 415.517 311.336 415.517C312.269 415.517 312.926 415.058 313.125 414.232H315.006C314.777 415.991 313.309 417.199 311.336 417.199C309.042 417.199 307.544 415.608 307.544 413.208ZM318.26 417H316.395V405.623H318.275V410.425C318.749 409.691 319.636 409.216 320.722 409.216C322.588 409.216 323.566 410.394 323.566 412.351V417H321.701V412.795C321.701 411.526 321.074 410.914 320.126 410.914C318.948 410.914 318.26 411.74 318.26 412.871V417ZM326.332 407.932C325.69 407.932 325.185 407.427 325.185 406.8C325.185 406.173 325.69 405.684 326.332 405.684C326.944 405.684 327.448 406.173 327.448 406.8C327.448 407.427 326.944 407.932 326.332 407.932ZM325.399 417V409.446H327.265V417H325.399ZM332.297 417.199C330.11 417.199 328.749 415.593 328.749 413.254C328.749 410.899 330.125 409.216 332.404 409.216C333.459 409.216 334.392 409.66 334.866 410.409V405.623H336.716V417H335.003L334.881 415.823C334.422 416.694 333.444 417.199 332.297 417.199ZM332.71 415.486C334.009 415.486 334.85 414.553 334.85 413.192C334.85 411.831 334.009 410.883 332.71 410.883C331.41 410.883 330.615 411.847 330.615 413.192C330.615 414.538 331.41 415.486 332.71 415.486Z" fill="white"/>
<path d="M520 186H260V372H520V186Z" fill="#004D92"/>
<path d="M291.684 307H290.583V296.051H291.684V300.929H297.602V296.051H298.688V307H297.602V301.954H291.684V307ZM307.925 307H301.365V296.051H307.91V297.06H302.466V301.006H307.405V302H302.466V305.991H307.925V307ZM312.868 301.541L309.045 296.051H310.344L312.378 298.926C312.898 299.66 313.25 300.241 313.51 300.73L316.691 296.051H317.96L314.198 301.51L318.021 307H316.706L314.626 304.064C314.259 303.544 313.816 302.871 313.54 302.382L310.344 307H309.06L312.868 301.541ZM291.684 325H290.583V314.051H294.666C296.884 314.051 298.229 315.274 298.229 317.216C298.229 318.792 297.403 319.893 295.997 320.275L298.336 325H297.113L294.88 320.458H291.684V325ZM291.684 315.045V319.464H294.697C296.211 319.464 297.098 318.639 297.098 317.247C297.098 315.825 296.165 315.045 294.666 315.045H291.684ZM304.892 314.907C302.369 314.907 300.779 316.773 300.779 319.571C300.779 322.416 302.461 324.144 304.923 324.144C306.758 324.144 308.547 323.257 308.547 320.627V320.061H304.587V319.082H309.587V325.015H308.715L308.608 323.272C308.027 324.358 306.651 325.184 304.877 325.184C301.773 325.184 299.632 322.951 299.632 319.571C299.632 316.223 301.773 313.868 304.908 313.868C307.217 313.868 309.006 315.183 309.434 317.171H308.241C307.783 315.672 306.498 314.907 304.892 314.907ZM311.774 325V314.051H315.78C317.89 314.051 319.19 315.122 319.19 316.88C319.19 318.165 318.625 319.036 317.493 319.48C318.762 319.893 319.404 320.779 319.404 322.125C319.404 323.884 318.089 325 316.01 325H311.774ZM315.765 315.03H312.875V319.036H315.903C317.279 319.036 318.059 318.272 318.059 316.972C318.059 315.748 317.233 315.03 315.765 315.03ZM316.01 320H312.875V324.006H316.01C317.447 324.006 318.288 323.257 318.288 321.988C318.288 320.749 317.432 320 316.01 320ZM295.049 344.168C291.99 344.168 289.91 341.89 289.91 338.526C289.91 335.161 292.021 332.868 295.11 332.868C297.465 332.868 299.315 334.29 299.758 336.461H298.581C298.122 334.886 296.776 333.923 295.064 333.923C292.663 333.923 291.057 335.758 291.057 338.526C291.057 341.278 292.663 343.113 295.064 343.113C296.792 343.113 298.168 342.18 298.642 340.712H299.82C299.315 342.777 297.403 344.168 295.049 344.168ZM302.809 344H301.724V333.051H302.809L306.8 342.7L310.792 333.051H311.893V344H310.807V338.801C310.807 336.889 310.838 336.048 310.899 335.299L307.336 344H306.281L302.718 335.345C302.779 335.758 302.809 336.966 302.809 338.633V344ZM317.09 339.428L313.374 333.051H314.613L317.319 337.776C317.442 338.006 317.533 338.189 317.64 338.434C317.778 338.159 317.778 338.159 317.977 337.776L320.653 333.051H321.861L318.191 339.428V344H317.09V339.428ZM324.448 333.051V339.642L329.724 333.051H331.039L327.323 337.684L331.1 344H329.816L326.604 338.602L324.448 341.278V344H323.347V333.051H324.448Z" fill="white"/>
<path d="M344.658 301.434C344.658 297.963 346.523 295.608 349.383 295.608C352.242 295.608 354.123 297.963 354.123 301.434C354.123 304.89 352.349 307.199 349.383 307.199C346.416 307.199 344.658 304.89 344.658 301.434ZM346.584 301.434C346.584 304.018 347.624 305.471 349.383 305.471C351.157 305.471 352.196 304.018 352.196 301.434C352.196 298.788 351.157 297.336 349.383 297.336C347.624 297.336 346.584 298.788 346.584 301.434ZM355.439 301.434C355.439 297.963 357.305 295.608 360.165 295.608C363.024 295.608 364.905 297.963 364.905 301.434C364.905 304.89 363.131 307.199 360.165 307.199C357.198 307.199 355.439 304.89 355.439 301.434ZM357.366 301.434C357.366 304.018 358.406 305.471 360.165 305.471C361.938 305.471 362.978 304.018 362.978 301.434C362.978 298.788 361.938 297.336 360.165 297.336C358.406 297.336 357.366 298.788 357.366 301.434ZM374.877 304.874H373.516V307H371.665V304.874H365.992V303.162L371.054 295.822H373.516V303.162H374.877V304.874ZM368.072 303.162H371.665V297.932L368.072 303.162ZM380.71 307H376.688V295.822H380.603C383.906 295.822 386.185 298.1 386.185 301.434C386.185 304.722 383.952 307 380.71 307ZM380.42 297.626H378.646V305.196H380.527C382.759 305.196 384.12 303.758 384.12 301.434C384.12 299.064 382.729 297.626 380.42 297.626ZM394.002 303.712L391.586 307H389.354L392.03 303.437C391.754 303.513 391.464 303.559 391.189 303.559C388.879 303.559 387.32 301.938 387.32 299.675C387.32 297.29 389.094 295.623 391.479 295.623C393.895 295.623 395.7 297.397 395.7 299.691C395.7 301.036 395.256 302.015 394.002 303.712ZM393.696 299.675C393.696 298.314 392.794 297.366 391.479 297.366C390.195 297.366 389.292 298.314 389.292 299.675C389.292 301.021 390.195 301.954 391.479 301.954C392.809 301.954 393.696 301.021 393.696 299.675ZM404.604 306.985L396.851 307V305.532L400.506 302.443C402.019 301.159 402.524 300.425 402.524 299.354C402.524 298.085 401.836 297.366 400.658 297.366C399.435 297.366 398.671 298.223 398.655 299.66H396.713C396.728 297.213 398.288 295.623 400.658 295.623C403.044 295.623 404.527 296.984 404.527 299.247C404.527 300.807 403.671 301.984 401.974 303.437L399.955 305.165H404.604V306.985ZM344.658 319.434C344.658 315.963 346.523 313.608 349.383 313.608C352.242 313.608 354.123 315.963 354.123 319.434C354.123 322.89 352.349 325.199 349.383 325.199C346.416 325.199 344.658 322.89 344.658 319.434ZM346.584 319.434C346.584 322.018 347.624 323.471 349.383 323.471C351.157 323.471 352.196 322.018 352.196 319.434C352.196 316.788 351.157 315.336 349.383 315.336C347.624 315.336 346.584 316.788 346.584 319.434ZM363.132 313.822H371.16V315.626L367.108 325H365.074L369.203 315.626H363.132V313.822ZM372.122 313.822H380.15V315.626L376.098 325H374.064L378.193 315.626H372.122V313.822ZM391.453 315.58H389.006V313.822H393.334V325H391.453V315.58ZM403.892 322.874H402.531V325H400.681V322.874H395.008V321.162L400.069 313.822H402.531V321.162H403.892V322.874ZM397.087 321.162H400.681V315.932L397.087 321.162ZM406.519 317.109L408.935 313.822H411.168L408.492 317.385C408.767 317.308 409.057 317.262 409.333 317.262C411.642 317.262 413.202 318.883 413.202 321.146C413.202 323.532 411.428 325.199 409.042 325.199C406.626 325.199 404.822 323.425 404.822 321.131C404.822 319.786 405.265 318.807 406.519 317.109ZM406.825 321.146C406.825 322.507 407.727 323.456 409.042 323.456C410.311 323.456 411.229 322.507 411.229 321.146C411.229 319.801 410.327 318.868 409.042 318.868C407.712 318.868 406.825 319.801 406.825 321.146ZM346.967 334.58H344.52V332.822H348.847V344H346.967V334.58ZM350.75 338.434C350.75 334.963 352.616 332.608 355.476 332.608C358.335 332.608 360.216 334.963 360.216 338.434C360.216 341.89 358.442 344.199 355.476 344.199C352.509 344.199 350.75 341.89 350.75 338.434ZM352.677 338.434C352.677 341.018 353.717 342.471 355.476 342.471C357.249 342.471 358.289 341.018 358.289 338.434C358.289 335.788 357.249 334.336 355.476 334.336C353.717 334.336 352.677 335.788 352.677 338.434ZM361.532 338.434C361.532 334.963 363.398 332.608 366.257 332.608C369.117 332.608 370.998 334.963 370.998 338.434C370.998 341.89 369.224 344.199 366.257 344.199C363.291 344.199 361.532 341.89 361.532 338.434ZM363.459 338.434C363.459 341.018 364.499 342.471 366.257 342.471C368.031 342.471 369.071 341.018 369.071 338.434C369.071 335.788 368.031 334.336 366.257 334.336C364.499 334.336 363.459 335.788 363.459 338.434ZM389.213 341.874H387.852V344H386.001V341.874H380.328V340.162L385.39 332.822H387.852V340.162H389.213V341.874ZM382.408 340.162H386.001V334.932L382.408 340.162ZM389.295 332.822H397.324V334.626L393.271 344H391.238L395.366 334.626H389.295V332.822ZM406.317 338.434C406.317 334.963 408.183 332.608 411.043 332.608C413.902 332.608 415.783 334.963 415.783 338.434C415.783 341.89 414.009 344.199 411.043 344.199C408.076 344.199 406.317 341.89 406.317 338.434ZM408.244 338.434C408.244 341.018 409.284 342.471 411.043 342.471C412.816 342.471 413.856 341.018 413.856 338.434C413.856 335.788 412.816 334.336 411.043 334.336C409.284 334.336 408.244 335.788 408.244 338.434ZM433.998 341.874H432.637V344H430.786V341.874H425.113V340.162L430.175 332.822H432.637V340.162H433.998V341.874ZM427.193 340.162H430.786V334.932L427.193 340.162ZM438.591 338.464H437.23V337.195L440.105 334.55H435.456V332.822H442.552V334.381L439.83 336.889C441.543 337.226 442.873 338.48 442.873 340.452C442.873 342.746 441.084 344.199 438.821 344.199C436.634 344.199 434.937 342.853 434.937 340.437H436.863C436.863 341.722 437.658 342.456 438.851 342.456C440.075 342.456 440.885 341.66 440.885 340.422C440.885 339.29 440.151 338.464 438.591 338.464Z" fill="white"/>
<path d="M292.112 219.822V229.196H296.791V231H290.154V219.822H292.112ZM300.355 231.199C298.75 231.199 297.771 230.266 297.771 228.844C297.771 227.452 298.78 226.581 300.569 226.443L302.833 226.275V226.107C302.833 225.082 302.221 224.669 301.273 224.669C300.172 224.669 299.56 225.128 299.56 225.923H297.97C297.97 224.287 299.315 223.216 301.365 223.216C303.398 223.216 304.652 224.317 304.652 226.412V231H303.016L302.878 229.884C302.557 230.664 301.533 231.199 300.355 231.199ZM300.967 229.792C302.114 229.792 302.848 229.104 302.848 227.942V227.544L301.273 227.666C300.111 227.773 299.667 228.156 299.667 228.767C299.667 229.456 300.126 229.792 300.967 229.792ZM308.366 231H306.516V219.623H308.366V226.611L311.302 223.446H313.642L310.767 226.443L313.58 231H311.44L309.467 227.819L308.366 228.966V231ZM317.749 231.199C315.501 231.199 313.926 229.563 313.926 227.223C313.926 224.853 315.471 223.216 317.688 223.216C319.951 223.216 321.389 224.73 321.389 227.085V227.651L315.7 227.666C315.838 228.997 316.541 229.67 317.78 229.67C318.805 229.67 319.477 229.272 319.691 228.553H321.419C321.098 230.205 319.722 231.199 317.749 231.199ZM317.704 224.746C316.602 224.746 315.93 225.342 315.746 226.474H319.539C319.539 225.434 318.82 224.746 317.704 224.746Z" fill="white"/>
<path d="M520 0H260V186H520V0Z" fill="#14AFFE"/>
<path d="M291.684 121H290.583V110.051H291.684V114.929H297.602V110.051H298.688V121H297.602V115.954H291.684V121ZM307.925 121H301.365V110.051H307.91V111.06H302.466V115.006H307.405V116H302.466V119.991H307.925V121ZM312.868 115.541L309.045 110.051H310.344L312.378 112.926C312.898 113.66 313.25 114.241 313.51 114.73L316.691 110.051H317.96L314.198 115.51L318.021 121H316.706L314.626 118.064C314.259 117.544 313.816 116.871 313.54 116.382L310.344 121H309.06L312.868 115.541ZM291.684 139H290.583V128.051H294.666C296.884 128.051 298.229 129.274 298.229 131.216C298.229 132.792 297.403 133.893 295.997 134.275L298.336 139H297.113L294.88 134.458H291.684V139ZM291.684 129.045V133.464H294.697C296.211 133.464 297.098 132.639 297.098 131.247C297.098 129.825 296.165 129.045 294.666 129.045H291.684ZM304.892 128.907C302.369 128.907 300.779 130.773 300.779 133.571C300.779 136.416 302.461 138.144 304.923 138.144C306.758 138.144 308.547 137.257 308.547 134.627V134.061H304.587V133.082H309.587V139.015H308.715L308.608 137.272C308.027 138.358 306.651 139.184 304.877 139.184C301.773 139.184 299.632 136.951 299.632 133.571C299.632 130.223 301.773 127.868 304.908 127.868C307.217 127.868 309.006 129.183 309.434 131.171H308.241C307.783 129.672 306.498 128.907 304.892 128.907ZM311.774 139V128.051H315.78C317.89 128.051 319.19 129.122 319.19 130.88C319.19 132.165 318.625 133.036 317.493 133.48C318.762 133.893 319.404 134.779 319.404 136.125C319.404 137.884 318.089 139 316.01 139H311.774ZM315.765 129.03H312.875V133.036H315.903C317.279 133.036 318.059 132.272 318.059 130.972C318.059 129.748 317.233 129.03 315.765 129.03ZM316.01 134H312.875V138.006H316.01C317.447 138.006 318.288 137.257 318.288 135.988C318.288 134.749 317.432 134 316.01 134ZM295.049 158.168C291.99 158.168 289.91 155.89 289.91 152.526C289.91 149.161 292.021 146.868 295.11 146.868C297.465 146.868 299.315 148.29 299.758 150.461H298.581C298.122 148.886 296.776 147.923 295.064 147.923C292.663 147.923 291.057 149.758 291.057 152.526C291.057 155.278 292.663 157.113 295.064 157.113C296.792 157.113 298.168 156.18 298.642 154.712H299.82C299.315 156.777 297.403 158.168 295.049 158.168ZM302.809 158H301.724V147.051H302.809L306.8 156.7L310.792 147.051H311.893V158H310.807V152.801C310.807 150.889 310.838 150.048 310.899 149.299L307.336 158H306.281L302.718 149.345C302.779 149.758 302.809 150.966 302.809 152.633V158ZM317.09 153.428L313.374 147.051H314.613L317.319 151.776C317.442 152.006 317.533 152.189 317.64 152.434C317.778 152.159 317.778 152.159 317.977 151.776L320.653 147.051H321.861L318.191 153.428V158H317.09V153.428ZM324.448 147.051V153.642L329.724 147.051H331.039L327.323 151.684L331.1 158H329.816L326.604 152.602L324.448 155.278V158H323.347V147.051H324.448Z" fill="white"/>
<path d="M346.639 111.58H344.193V109.822H348.52V121H346.639V111.58ZM359.078 118.874H357.717V121H355.867V118.874H350.194V117.162L355.255 109.822H357.717V117.162H359.078V118.874ZM352.273 117.162H355.867V111.932L352.273 117.162ZM361.853 121H359.82L363.857 109.822H365.86L369.897 121H367.832L366.93 118.416H362.756L361.853 121ZM364.606 113.155L363.337 116.764H366.364L365.08 113.155C364.988 112.865 364.881 112.528 364.851 112.299C364.805 112.513 364.713 112.849 364.606 113.155ZM377.415 116.428H373.256V121H371.299V109.822H378.21V111.626H373.256V114.669H377.415V116.428ZM386.092 116.428H381.932V121H379.975V109.822H386.887V111.626H381.932V114.669H386.092V116.428ZM395.594 121H388.651V109.822H395.594V111.626H390.608V114.501H395.074V116.229H390.608V119.196H395.594V121ZM352.129 138.985L344.376 139V137.532L348.031 134.443C349.545 133.159 350.049 132.425 350.049 131.354C350.049 130.085 349.361 129.366 348.184 129.366C346.96 129.366 346.196 130.223 346.18 131.66H344.238C344.254 129.213 345.813 127.623 348.184 127.623C350.569 127.623 352.053 128.984 352.053 131.247C352.053 132.807 351.196 133.984 349.499 135.437L347.48 137.165H352.129V138.985ZM353.335 133.434C353.335 129.963 355.201 127.608 358.06 127.608C360.92 127.608 362.801 129.963 362.801 133.434C362.801 136.89 361.027 139.199 358.06 139.199C355.094 139.199 353.335 136.89 353.335 133.434ZM355.262 133.434C355.262 136.018 356.302 137.471 358.06 137.471C359.834 137.471 360.874 136.018 360.874 133.434C360.874 130.788 359.834 129.336 358.06 129.336C356.302 129.336 355.262 130.788 355.262 133.434ZM374.669 129.58H372.222V127.822H376.55V139H374.669V129.58ZM378.037 127.822H386.065V129.626L382.013 139H379.979L384.108 129.626H378.037V127.822ZM390.475 139.184C388.135 139.184 386.591 137.685 386.591 135.422H388.533C388.533 136.691 389.282 137.44 390.521 137.44C391.836 137.44 392.677 136.584 392.677 135.223C392.677 133.923 391.897 133.036 390.551 133.036C389.695 133.036 388.915 133.464 388.518 134.045L386.79 133.678L388.166 127.822H393.992V129.626H389.573L388.976 131.95C389.512 131.599 390.184 131.4 390.949 131.4C393.182 131.4 394.665 132.914 394.665 135.116C394.665 137.532 392.968 139.184 390.475 139.184ZM411.833 138.985L404.08 139V137.532L407.734 134.443C409.248 133.159 409.753 132.425 409.753 131.354C409.753 130.085 409.065 129.366 407.887 129.366C406.664 129.366 405.899 130.223 405.884 131.66H403.942C403.957 129.213 405.517 127.623 407.887 127.623C410.273 127.623 411.756 128.984 411.756 131.247C411.756 132.807 410.9 133.984 409.202 135.437L407.184 137.165H411.833V138.985ZM416.758 139.184C414.418 139.184 412.874 137.685 412.874 135.422H414.816C414.816 136.691 415.565 137.44 416.804 137.44C418.119 137.44 418.96 136.584 418.96 135.223C418.96 133.923 418.18 133.036 416.834 133.036C415.978 133.036 415.198 133.464 414.8 134.045L413.072 133.678L414.449 127.822H420.275V129.626H415.856L415.259 131.95C415.794 131.599 416.467 131.4 417.232 131.4C419.464 131.4 420.948 132.914 420.948 135.116C420.948 137.532 419.25 139.184 416.758 139.184ZM430.728 136.874H429.368V139H427.517V136.874H421.844V135.162L426.906 127.822H429.368V135.162H430.728V136.874ZM423.924 135.162H427.517V129.932L423.924 135.162ZM350.906 154.712L348.49 158H346.257L348.933 154.437C348.658 154.513 348.367 154.559 348.092 154.559C345.783 154.559 344.223 152.938 344.223 150.675C344.223 148.29 345.997 146.623 348.382 146.623C350.799 146.623 352.603 148.397 352.603 150.691C352.603 152.036 352.16 153.015 350.906 154.712ZM350.6 150.675C350.6 149.314 349.698 148.366 348.382 148.366C347.098 148.366 346.196 149.314 346.196 150.675C346.196 152.021 347.098 152.954 348.382 152.954C349.713 152.954 350.6 152.021 350.6 150.675ZM361.507 157.985L353.754 158V156.532L357.409 153.443C358.923 152.159 359.427 151.425 359.427 150.354C359.427 149.085 358.739 148.366 357.562 148.366C356.339 148.366 355.574 149.223 355.559 150.66H353.617C353.632 148.213 355.192 146.623 357.562 146.623C359.947 146.623 361.431 147.984 361.431 150.247C361.431 151.807 360.574 152.984 358.877 154.437L356.858 156.165H361.507V157.985ZM374.259 152.464H372.898V151.195L375.773 148.55H371.125V146.822H378.22V148.381L375.498 150.889C377.211 151.226 378.541 152.48 378.541 154.452C378.541 156.746 376.752 158.199 374.489 158.199C372.302 158.199 370.605 156.853 370.605 154.437H372.531C372.531 155.722 373.327 156.456 374.519 156.456C375.743 156.456 376.553 155.66 376.553 154.422C376.553 153.29 375.819 152.464 374.259 152.464ZM381.822 148.58H379.376V146.822H383.703V158H381.822V148.58ZM393.849 152.434C393.849 148.963 395.715 146.608 398.574 146.608C401.434 146.608 403.315 148.963 403.315 152.434C403.315 155.89 401.541 158.199 398.574 158.199C395.608 158.199 393.849 155.89 393.849 152.434ZM395.776 152.434C395.776 155.018 396.816 156.471 398.574 156.471C400.348 156.471 401.388 155.018 401.388 152.434C401.388 149.788 400.348 148.336 398.574 148.336C396.816 148.336 395.776 149.788 395.776 152.434ZM412.874 152.434C412.874 148.963 414.74 146.608 417.6 146.608C420.459 146.608 422.34 148.963 422.34 152.434C422.34 155.89 420.566 158.199 417.6 158.199C414.633 158.199 412.874 155.89 412.874 152.434ZM414.801 152.434C414.801 155.018 415.841 156.471 417.6 156.471C419.373 156.471 420.413 155.018 420.413 152.434C420.413 149.788 419.373 148.336 417.6 148.336C415.841 148.336 414.801 149.788 414.801 152.434Z" fill="white"/>
<path d="M289.512 36.9412C289.512 34.9839 291.133 33.6229 293.488 33.6229C295.751 33.6229 297.189 34.8768 297.25 36.8954H295.292C295.247 35.932 294.558 35.3662 293.457 35.3662C292.249 35.3662 291.469 35.9473 291.469 36.8801C291.469 37.6752 291.898 38.1187 292.83 38.3328L294.589 38.7151C296.5 39.128 297.433 40.1066 297.433 41.7734C297.433 43.8531 295.812 45.1988 293.35 45.1988C290.965 45.1988 289.405 43.9296 289.359 41.9264H291.317C291.332 42.8744 292.096 43.4402 293.35 43.4402C294.65 43.4402 295.476 42.8744 295.476 41.9416C295.476 41.1923 295.094 40.7489 294.176 40.5501L292.402 40.1525C290.506 39.7396 289.512 38.6539 289.512 36.9412ZM300.81 45H298.959V33.6229H300.81V40.6113L303.746 37.4459H306.085L303.21 40.443L306.024 45H303.883L301.911 41.8193L300.81 42.9662V45ZM306.5 48.5018V46.9421H307.616C308.35 46.9421 308.809 46.7738 309.13 45.8869L309.344 45.3211L306.301 37.4459H308.273L310.215 42.9509L312.265 37.4459H314.191L310.491 46.6821C309.925 48.0889 309.13 48.67 307.891 48.67C307.371 48.67 306.912 48.6089 306.5 48.5018Z" fill="white"/>
<path d="M780 372H520V558H780V372Z" fill="black"/>
<path d="M551.518 493H550.417V482.051H551.518V486.929H557.436V482.051H558.521V493H557.436V487.954H551.518V493ZM567.759 493H561.199V482.051H567.744V483.06H562.3V487.006H567.239V488H562.3V491.991H567.759V493ZM572.701 487.541L568.878 482.051H570.178L572.212 484.926C572.732 485.66 573.083 486.241 573.343 486.73L576.524 482.051H577.793L574.032 487.51L577.854 493H576.539L574.46 490.064C574.093 489.544 573.649 488.871 573.374 488.382L570.178 493H568.893L572.701 487.541ZM551.518 511H550.417V500.051H554.5C556.717 500.051 558.063 501.274 558.063 503.216C558.063 504.792 557.237 505.893 555.83 506.275L558.17 511H556.946L554.714 506.458H551.518V511ZM551.518 501.045V505.464H554.53C556.044 505.464 556.931 504.639 556.931 503.247C556.931 501.825 555.998 501.045 554.5 501.045H551.518ZM564.726 500.907C562.203 500.907 560.612 502.773 560.612 505.571C560.612 508.416 562.295 510.144 564.757 510.144C566.592 510.144 568.381 509.257 568.381 506.627V506.061H564.42V505.082H569.421V511.015H568.549L568.442 509.272C567.861 510.358 566.485 511.184 564.711 511.184C561.606 511.184 559.466 508.951 559.466 505.571C559.466 502.223 561.606 499.868 564.741 499.868C567.05 499.868 568.839 501.183 569.268 503.171H568.075C567.616 501.672 566.332 500.907 564.726 500.907ZM571.607 511V500.051H575.614C577.724 500.051 579.024 501.122 579.024 502.88C579.024 504.165 578.458 505.036 577.326 505.48C578.596 505.893 579.238 506.779 579.238 508.125C579.238 509.884 577.923 511 575.843 511H571.607ZM575.598 501.03H572.708V505.036H575.736C577.112 505.036 577.892 504.272 577.892 502.972C577.892 501.748 577.066 501.03 575.598 501.03ZM575.843 506H572.708V510.006H575.843C577.281 510.006 578.122 509.257 578.122 507.988C578.122 506.749 577.265 506 575.843 506ZM554.882 530.168C551.824 530.168 549.744 527.89 549.744 524.526C549.744 521.161 551.854 518.868 554.943 518.868C557.298 518.868 559.148 520.29 559.592 522.461H558.414C557.956 520.886 556.61 519.923 554.897 519.923C552.496 519.923 550.891 521.758 550.891 524.526C550.891 527.278 552.496 529.113 554.897 529.113C556.625 529.113 558.002 528.18 558.476 526.712H559.653C559.148 528.777 557.237 530.168 554.882 530.168ZM562.643 530H561.557V519.051H562.643L566.634 528.7L570.625 519.051H571.726V530H570.64V524.801C570.64 522.889 570.671 522.048 570.732 521.299L567.169 530H566.114L562.551 521.345C562.612 521.758 562.643 522.966 562.643 524.633V530ZM576.923 525.428L573.207 519.051H574.446L577.153 523.776C577.275 524.006 577.367 524.189 577.474 524.434C577.611 524.159 577.611 524.159 577.81 523.776L580.486 519.051H581.694L578.024 525.428V530H576.923V525.428ZM584.282 519.051V525.642L589.557 519.051H590.872L587.157 523.684L590.934 530H589.649L586.438 524.602L584.282 527.278V530H583.181V519.051H584.282Z" fill="white"/>
<path d="M604.164 487.434C604.164 483.963 606.029 481.608 608.889 481.608C611.748 481.608 613.629 483.963 613.629 487.434C613.629 490.89 611.855 493.199 608.889 493.199C605.922 493.199 604.164 490.89 604.164 487.434ZM606.09 487.434C606.09 490.018 607.13 491.471 608.889 491.471C610.663 491.471 611.702 490.018 611.702 487.434C611.702 484.788 610.663 483.336 608.889 483.336C607.13 483.336 606.09 484.788 606.09 487.434ZM614.946 487.434C614.946 483.963 616.811 481.608 619.671 481.608C622.53 481.608 624.411 483.963 624.411 487.434C624.411 490.89 622.637 493.199 619.671 493.199C616.704 493.199 614.946 490.89 614.946 487.434ZM616.872 487.434C616.872 490.018 617.912 491.471 619.671 491.471C621.445 491.471 622.484 490.018 622.484 487.434C622.484 484.788 621.445 483.336 619.671 483.336C617.912 483.336 616.872 484.788 616.872 487.434ZM625.727 487.434C625.727 483.963 627.593 481.608 630.453 481.608C633.312 481.608 635.193 483.963 635.193 487.434C635.193 490.89 633.419 493.199 630.453 493.199C627.486 493.199 625.727 490.89 625.727 487.434ZM627.654 487.434C627.654 490.018 628.694 491.471 630.453 491.471C632.226 491.471 633.266 490.018 633.266 487.434C633.266 484.788 632.226 483.336 630.453 483.336C628.694 483.336 627.654 484.788 627.654 487.434ZM636.509 487.434C636.509 483.963 638.375 481.608 641.235 481.608C644.094 481.608 645.975 483.963 645.975 487.434C645.975 490.89 644.201 493.199 641.235 493.199C638.268 493.199 636.509 490.89 636.509 487.434ZM638.436 487.434C638.436 490.018 639.476 491.471 641.235 491.471C643.008 491.471 644.048 490.018 644.048 487.434C644.048 484.788 643.008 483.336 641.235 483.336C639.476 483.336 638.436 484.788 638.436 487.434ZM647.291 487.434C647.291 483.963 649.157 481.608 652.016 481.608C654.876 481.608 656.757 483.963 656.757 487.434C656.757 490.89 654.983 493.199 652.016 493.199C649.05 493.199 647.291 490.89 647.291 487.434ZM649.218 487.434C649.218 490.018 650.258 491.471 652.016 491.471C653.79 491.471 654.83 490.018 654.83 487.434C654.83 484.788 653.79 483.336 652.016 483.336C650.258 483.336 649.218 484.788 649.218 487.434ZM658.073 487.434C658.073 483.963 659.939 481.608 662.798 481.608C665.658 481.608 667.539 483.963 667.539 487.434C667.539 490.89 665.765 493.199 662.798 493.199C659.832 493.199 658.073 490.89 658.073 487.434ZM660 487.434C660 490.018 661.04 491.471 662.798 491.471C664.572 491.471 665.612 490.018 665.612 487.434C665.612 484.788 664.572 483.336 662.798 483.336C661.04 483.336 660 484.788 660 487.434ZM604.164 505.434C604.164 501.963 606.029 499.608 608.889 499.608C611.748 499.608 613.629 501.963 613.629 505.434C613.629 508.89 611.855 511.199 608.889 511.199C605.922 511.199 604.164 508.89 604.164 505.434ZM606.09 505.434C606.09 508.018 607.13 509.471 608.889 509.471C610.663 509.471 611.702 508.018 611.702 505.434C611.702 502.788 610.663 501.336 608.889 501.336C607.13 501.336 606.09 502.788 606.09 505.434ZM623.189 505.434C623.189 501.963 625.054 499.608 627.914 499.608C630.774 499.608 632.654 501.963 632.654 505.434C632.654 508.89 630.881 511.199 627.914 511.199C624.947 511.199 623.189 508.89 623.189 505.434ZM625.116 505.434C625.116 508.018 626.155 509.471 627.914 509.471C629.688 509.471 630.728 508.018 630.728 505.434C630.728 502.788 629.688 501.336 627.914 501.336C626.155 501.336 625.116 502.788 625.116 505.434ZM642.214 505.434C642.214 501.963 644.08 499.608 646.939 499.608C649.799 499.608 651.68 501.963 651.68 505.434C651.68 508.89 649.906 511.199 646.939 511.199C643.972 511.199 642.214 508.89 642.214 505.434ZM644.141 505.434C644.141 508.018 645.181 509.471 646.939 509.471C648.713 509.471 649.753 508.018 649.753 505.434C649.753 502.788 648.713 501.336 646.939 501.336C645.181 501.336 644.141 502.788 644.141 505.434ZM604.164 524.434C604.164 520.963 606.029 518.608 608.889 518.608C611.748 518.608 613.629 520.963 613.629 524.434C613.629 527.89 611.855 530.199 608.889 530.199C605.922 530.199 604.164 527.89 604.164 524.434ZM606.09 524.434C606.09 527.018 607.13 528.471 608.889 528.471C610.663 528.471 611.702 527.018 611.702 524.434C611.702 521.788 610.663 520.336 608.889 520.336C607.13 520.336 606.09 521.788 606.09 524.434ZM623.189 524.434C623.189 520.963 625.054 518.608 627.914 518.608C630.774 518.608 632.654 520.963 632.654 524.434C632.654 527.89 630.881 530.199 627.914 530.199C624.947 530.199 623.189 527.89 623.189 524.434ZM625.116 524.434C625.116 527.018 626.155 528.471 627.914 528.471C629.688 528.471 630.728 527.018 630.728 524.434C630.728 521.788 629.688 520.336 627.914 520.336C626.155 520.336 625.116 521.788 625.116 524.434ZM642.214 524.434C642.214 520.963 644.08 518.608 646.939 518.608C649.799 518.608 651.68 520.963 651.68 524.434C651.68 527.89 649.906 530.199 646.939 530.199C643.972 530.199 642.214 527.89 642.214 524.434ZM644.141 524.434C644.141 527.018 645.181 528.471 646.939 528.471C648.713 528.471 649.753 527.018 649.753 524.434C649.753 521.788 648.713 520.336 646.939 520.336C645.181 520.336 644.141 521.788 644.141 524.434ZM663.548 520.58H661.101V518.822H665.429V530H663.548V520.58ZM667.332 524.434C667.332 520.963 669.197 518.608 672.057 518.608C674.917 518.608 676.797 520.963 676.797 524.434C676.797 527.89 675.024 530.199 672.057 530.199C669.09 530.199 667.332 527.89 667.332 524.434ZM669.259 524.434C669.259 527.018 670.298 528.471 672.057 528.471C673.831 528.471 674.871 527.018 674.871 524.434C674.871 521.788 673.831 520.336 672.057 520.336C670.298 520.336 669.259 521.788 669.259 524.434ZM678.114 524.434C678.114 520.963 679.979 518.608 682.839 518.608C685.698 518.608 687.579 520.963 687.579 524.434C687.579 527.89 685.806 530.199 682.839 530.199C679.872 530.199 678.114 527.89 678.114 524.434ZM680.041 524.434C680.041 527.018 681.08 528.471 682.839 528.471C684.613 528.471 685.653 527.018 685.653 524.434C685.653 521.788 684.613 520.336 682.839 520.336C681.08 520.336 680.041 521.788 680.041 524.434Z" fill="white"/>
<path d="M554.407 413.146H551.945V417H549.988V405.822H554.407C556.655 405.822 558.108 407.29 558.108 409.476C558.108 411.633 556.64 413.146 554.407 413.146ZM554.025 407.565H551.945V411.403H553.994C555.34 411.403 556.059 410.684 556.059 409.461C556.059 408.238 555.325 407.565 554.025 407.565ZM560.412 407.932C559.77 407.932 559.265 407.427 559.265 406.8C559.265 406.173 559.77 405.684 560.412 405.684C561.024 405.684 561.528 406.173 561.528 406.8C561.528 407.427 561.024 407.932 560.412 407.932ZM559.479 417V409.446H561.345V417H559.479ZM565.841 417H563.976V411.006H562.523V409.446H563.976V407.091H565.841V409.446H567.309V411.006H565.841V417ZM567.951 413.208C567.951 410.868 569.495 409.216 571.728 409.216C573.792 409.216 575.199 410.363 575.398 412.183H573.532C573.318 411.327 572.691 410.883 571.804 410.883C570.612 410.883 569.816 411.786 569.816 413.208C569.816 414.63 570.55 415.517 571.743 415.517C572.676 415.517 573.334 415.058 573.532 414.232H575.413C575.184 415.991 573.716 417.199 571.743 417.199C569.449 417.199 567.951 415.608 567.951 413.208ZM578.667 417H576.802V405.623H578.683V410.425C579.157 409.691 580.044 409.216 581.129 409.216C582.995 409.216 583.974 410.394 583.974 412.351V417H582.108V412.795C582.108 411.526 581.481 410.914 580.533 410.914C579.356 410.914 578.667 411.74 578.667 412.871V417Z" fill="white"/>
<path d="M780 186H520V372H780V186Z" fill="#353A57"/>
<path d="M551.518 307H550.417V296.051H551.518V300.929H557.436V296.051H558.521V307H557.436V301.954H551.518V307ZM567.759 307H561.199V296.051H567.744V297.06H562.3V301.006H567.239V302H562.3V305.991H567.759V307ZM572.701 301.541L568.878 296.051H570.178L572.212 298.926C572.732 299.66 573.083 300.241 573.343 300.73L576.524 296.051H577.793L574.032 301.51L577.854 307H576.539L574.46 304.064C574.093 303.544 573.649 302.871 573.374 302.382L570.178 307H568.893L572.701 301.541ZM551.518 325H550.417V314.051H554.5C556.717 314.051 558.063 315.274 558.063 317.216C558.063 318.792 557.237 319.893 555.83 320.275L558.17 325H556.946L554.714 320.458H551.518V325ZM551.518 315.045V319.464H554.53C556.044 319.464 556.931 318.639 556.931 317.247C556.931 315.825 555.998 315.045 554.5 315.045H551.518ZM564.726 314.907C562.203 314.907 560.612 316.773 560.612 319.571C560.612 322.416 562.295 324.144 564.757 324.144C566.592 324.144 568.381 323.257 568.381 320.627V320.061H564.42V319.082H569.421V325.015H568.549L568.442 323.272C567.861 324.358 566.485 325.184 564.711 325.184C561.606 325.184 559.466 322.951 559.466 319.571C559.466 316.223 561.606 313.868 564.741 313.868C567.05 313.868 568.839 315.183 569.268 317.171H568.075C567.616 315.672 566.332 314.907 564.726 314.907ZM571.607 325V314.051H575.614C577.724 314.051 579.024 315.122 579.024 316.88C579.024 318.165 578.458 319.036 577.326 319.48C578.596 319.893 579.238 320.779 579.238 322.125C579.238 323.884 577.923 325 575.843 325H571.607ZM575.598 315.03H572.708V319.036H575.736C577.112 319.036 577.892 318.272 577.892 316.972C577.892 315.748 577.066 315.03 575.598 315.03ZM575.843 320H572.708V324.006H575.843C577.281 324.006 578.122 323.257 578.122 321.988C578.122 320.749 577.265 320 575.843 320ZM554.882 344.168C551.824 344.168 549.744 341.89 549.744 338.526C549.744 335.161 551.854 332.868 554.943 332.868C557.298 332.868 559.148 334.29 559.592 336.461H558.414C557.956 334.886 556.61 333.923 554.897 333.923C552.496 333.923 550.891 335.758 550.891 338.526C550.891 341.278 552.496 343.113 554.897 343.113C556.625 343.113 558.002 342.18 558.476 340.712H559.653C559.148 342.777 557.237 344.168 554.882 344.168ZM562.643 344H561.557V333.051H562.643L566.634 342.7L570.625 333.051H571.726V344H570.64V338.801C570.64 336.889 570.671 336.048 570.732 335.299L567.169 344H566.114L562.551 335.345C562.612 335.758 562.643 336.966 562.643 338.633V344ZM576.923 339.428L573.207 333.051H574.446L577.153 337.776C577.275 338.006 577.367 338.189 577.474 338.434C577.611 338.159 577.611 338.159 577.81 337.776L580.486 333.051H581.694L578.024 339.428V344H576.923V339.428ZM584.282 333.051V339.642L589.557 333.051H590.872L587.157 337.684L590.934 344H589.649L586.438 338.602L584.282 341.278V344H583.181V333.051H584.282Z" fill="white"/>
<path d="M607.467 301.464H606.106V300.195L608.981 297.55H604.332V295.822H611.427V297.381L608.705 299.889C610.418 300.226 611.748 301.48 611.748 303.452C611.748 305.746 609.959 307.199 607.696 307.199C605.509 307.199 603.812 305.853 603.812 303.437H605.739C605.739 304.722 606.534 305.456 607.727 305.456C608.95 305.456 609.76 304.66 609.76 303.422C609.76 302.29 609.026 301.464 607.467 301.464ZM616.664 307.184C614.324 307.184 612.779 305.685 612.779 303.422H614.722C614.722 304.691 615.471 305.44 616.709 305.44C618.025 305.44 618.866 304.584 618.866 303.223C618.866 301.923 618.086 301.036 616.74 301.036C615.884 301.036 615.104 301.464 614.706 302.045L612.978 301.678L614.355 295.822H620.181V297.626H615.761L615.165 299.95C615.7 299.599 616.373 299.4 617.138 299.4C619.37 299.4 620.854 300.914 620.854 303.116C620.854 305.532 619.156 307.184 616.664 307.184ZM625.387 301.464H624.026V300.195L626.901 297.55H622.252V295.822H629.347V297.381L626.625 299.889C628.338 300.226 629.668 301.48 629.668 303.452C629.668 305.746 627.879 307.199 625.616 307.199C623.429 307.199 621.732 305.853 621.732 303.437H623.659C623.659 304.722 624.454 305.456 625.647 305.456C626.87 305.456 627.681 304.66 627.681 303.422C627.681 302.29 626.946 301.464 625.387 301.464ZM632.334 307H630.301L634.338 295.822H636.341L640.378 307H638.313L637.411 304.416H633.237L632.334 307ZM635.087 299.155L633.818 302.764H636.845L635.561 299.155C635.469 298.865 635.362 298.528 635.332 298.299C635.286 298.513 635.194 298.849 635.087 299.155ZM645.052 307.184C642.712 307.184 641.168 305.685 641.168 303.422H643.11C643.11 304.691 643.859 305.44 645.098 305.44C646.413 305.44 647.254 304.584 647.254 303.223C647.254 301.923 646.474 301.036 645.128 301.036C644.272 301.036 643.492 301.464 643.095 302.045L641.367 301.678L642.743 295.822H648.569V297.626H644.15L643.553 299.95C644.089 299.599 644.761 299.4 645.526 299.4C647.759 299.4 649.242 300.914 649.242 303.116C649.242 305.532 647.545 307.184 645.052 307.184ZM649.712 295.822H657.741V297.626L653.688 307H651.655L655.783 297.626H649.712V295.822ZM608.017 325.184C605.678 325.184 604.133 323.685 604.133 321.422H606.075C606.075 322.691 606.824 323.44 608.063 323.44C609.378 323.44 610.219 322.584 610.219 321.223C610.219 319.923 609.439 319.036 608.094 319.036C607.237 319.036 606.457 319.464 606.06 320.045L604.332 319.678L605.708 313.822H611.534V315.626H607.115L606.519 317.95C607.054 317.599 607.727 317.4 608.491 317.4C610.724 317.4 612.207 318.914 612.207 321.116C612.207 323.532 610.51 325.184 608.017 325.184ZM616.74 319.464H615.379V318.195L618.254 315.55H613.605V313.822H620.701V315.381L617.979 317.889C619.692 318.226 621.022 319.48 621.022 321.452C621.022 323.746 619.233 325.199 616.97 325.199C614.783 325.199 613.086 323.853 613.086 321.437H615.012C615.012 322.722 615.808 323.456 617 323.456C618.224 323.456 619.034 322.66 619.034 321.422C619.034 320.29 618.3 319.464 616.74 319.464ZM634.24 325.184C631.901 325.184 630.356 323.685 630.356 321.422H632.298C632.298 322.691 633.047 323.44 634.286 323.44C635.601 323.44 636.442 322.584 636.442 321.223C636.442 319.923 635.662 319.036 634.317 319.036C633.46 319.036 632.68 319.464 632.283 320.045L630.555 319.678L631.931 313.822H637.757V315.626H633.338L632.742 317.95C633.277 317.599 633.95 317.4 634.714 317.4C636.947 317.4 638.43 318.914 638.43 321.116C638.43 323.532 636.733 325.184 634.24 325.184ZM639.54 321.835C639.54 320.504 640.29 319.434 641.452 318.99C640.473 318.547 639.938 317.706 639.938 316.62C639.938 314.846 641.513 313.623 643.822 313.623C646.116 313.623 647.66 314.831 647.66 316.651C647.66 317.736 647.11 318.577 646.116 318.99C647.293 319.403 648.058 320.489 648.058 321.835C648.058 323.853 646.391 325.184 643.792 325.184C641.207 325.184 639.54 323.868 639.54 321.835ZM641.712 316.788C641.712 317.721 642.522 318.317 643.792 318.317C645.046 318.317 645.841 317.736 645.841 316.804C645.841 315.871 645.046 315.29 643.792 315.29C642.522 315.29 641.712 315.871 641.712 316.788ZM641.452 321.697C641.452 322.783 642.354 323.456 643.807 323.456C645.229 323.456 646.131 322.783 646.131 321.697C646.131 320.611 645.229 319.938 643.792 319.938C642.354 319.938 641.452 320.611 641.452 321.697ZM657.58 321.835C657.58 320.504 658.329 319.434 659.491 318.99C658.513 318.547 657.978 317.706 657.978 316.62C657.978 314.846 659.553 313.623 661.862 313.623C664.155 313.623 665.7 314.831 665.7 316.651C665.7 317.736 665.149 318.577 664.155 318.99C665.333 319.403 666.098 320.489 666.098 321.835C666.098 323.853 664.431 325.184 661.831 325.184C659.247 325.184 657.58 323.868 657.58 321.835ZM659.751 316.788C659.751 317.721 660.562 318.317 661.831 318.317C663.085 318.317 663.88 317.736 663.88 316.804C663.88 315.871 663.085 315.29 661.831 315.29C660.562 315.29 659.751 315.871 659.751 316.788ZM659.491 321.697C659.491 322.783 660.394 323.456 661.846 323.456C663.269 323.456 664.171 322.783 664.171 321.697C664.171 320.611 663.269 319.938 661.831 319.938C660.394 319.938 659.491 320.611 659.491 321.697ZM666.692 313.822H674.72V315.626L670.668 325H668.634L672.763 315.626H666.692V313.822ZM607.467 338.464H606.106V337.195L608.981 334.55H604.332V332.822H611.427V334.381L608.705 336.889C610.418 337.226 611.748 338.48 611.748 340.452C611.748 342.746 609.959 344.199 607.696 344.199C605.509 344.199 603.812 342.853 603.812 340.437H605.739C605.739 341.722 606.534 342.456 607.727 342.456C608.95 342.456 609.76 341.66 609.76 340.422C609.76 339.29 609.026 338.464 607.467 338.464ZM619.445 340.712L617.029 344H614.797L617.473 340.437C617.197 340.513 616.907 340.559 616.632 340.559C614.323 340.559 612.763 338.938 612.763 336.675C612.763 334.29 614.537 332.623 616.922 332.623C619.338 332.623 621.143 334.397 621.143 336.691C621.143 338.036 620.699 339.015 619.445 340.712ZM619.139 336.675C619.139 335.314 618.237 334.366 616.922 334.366C615.638 334.366 614.735 335.314 614.735 336.675C614.735 338.021 615.638 338.954 616.922 338.954C618.253 338.954 619.139 338.021 619.139 336.675ZM633.899 338.464H632.538V337.195L635.413 334.55H630.764V332.822H637.859V334.381L635.137 336.889C636.85 337.226 638.18 338.48 638.18 340.452C638.18 342.746 636.391 344.199 634.128 344.199C631.941 344.199 630.244 342.853 630.244 340.437H632.171C632.171 341.722 632.966 342.456 634.159 342.456C635.382 342.456 636.193 341.66 636.193 340.422C636.193 339.29 635.459 338.464 633.899 338.464ZM642.933 338.464H641.572V337.195L644.447 334.55H639.799V332.822H646.894V334.381L644.172 336.889C645.885 337.226 647.215 338.48 647.215 340.452C647.215 342.746 645.426 344.199 643.163 344.199C640.976 344.199 639.279 342.853 639.279 340.437H641.205C641.205 341.722 642.001 342.456 643.193 342.456C644.417 342.456 645.227 341.66 645.227 340.422C645.227 339.29 644.493 338.464 642.933 338.464ZM656.58 338.434C656.58 334.963 658.445 332.608 661.305 332.608C664.165 332.608 666.045 334.963 666.045 338.434C666.045 341.89 664.272 344.199 661.305 344.199C658.338 344.199 656.58 341.89 656.58 338.434ZM658.507 338.434C658.507 341.018 659.546 342.471 661.305 342.471C663.079 342.471 664.119 341.018 664.119 338.434C664.119 335.788 663.079 334.336 661.305 334.336C659.546 334.336 658.507 335.788 658.507 338.434ZM677.195 336.109L679.611 332.822H681.844L679.168 336.385C679.443 336.308 679.734 336.262 680.009 336.262C682.318 336.262 683.878 337.883 683.878 340.146C683.878 342.532 682.104 344.199 679.718 344.199C677.302 344.199 675.498 342.425 675.498 340.131C675.498 338.786 675.941 337.807 677.195 336.109ZM677.501 340.146C677.501 341.507 678.403 342.456 679.718 342.456C680.988 342.456 681.905 341.507 681.905 340.146C681.905 338.801 681.003 337.868 679.718 337.868C678.388 337.868 677.501 338.801 677.501 340.146ZM686.678 336.109L689.094 332.822H691.327L688.651 336.385C688.926 336.308 689.216 336.262 689.492 336.262C691.801 336.262 693.361 337.883 693.361 340.146C693.361 342.532 691.587 344.199 689.201 344.199C686.785 344.199 684.981 342.425 684.981 340.131C684.981 338.786 685.424 337.807 686.678 336.109ZM686.984 340.146C686.984 341.507 687.886 342.456 689.201 342.456C690.47 342.456 691.388 341.507 691.388 340.146C691.388 338.801 690.486 337.868 689.201 337.868C687.871 337.868 686.984 338.801 686.984 340.146Z" fill="white"/>
<path d="M549.346 222.941C549.346 220.984 550.967 219.623 553.322 219.623C555.585 219.623 557.022 220.877 557.083 222.895H555.126C555.08 221.932 554.392 221.366 553.291 221.366C552.083 221.366 551.303 221.947 551.303 222.88C551.303 223.675 551.731 224.119 552.664 224.333L554.423 224.715C556.334 225.128 557.267 226.107 557.267 227.773C557.267 229.853 555.646 231.199 553.184 231.199C550.798 231.199 549.239 229.93 549.193 227.926H551.15C551.165 228.874 551.93 229.44 553.184 229.44C554.484 229.44 555.309 228.874 555.309 227.942C555.309 227.192 554.927 226.749 554.01 226.55L552.236 226.153C550.34 225.74 549.346 224.654 549.346 222.941ZM560.643 231H558.793V219.623H560.643V231ZM564.848 231.199C563.242 231.199 562.264 230.266 562.264 228.844C562.264 227.452 563.273 226.581 565.062 226.443L567.325 226.275V226.107C567.325 225.082 566.714 224.669 565.766 224.669C564.665 224.669 564.053 225.128 564.053 225.923H562.463C562.463 224.287 563.808 223.216 565.857 223.216C567.891 223.216 569.145 224.317 569.145 226.412V231H567.509L567.371 229.884C567.05 230.664 566.026 231.199 564.848 231.199ZM565.46 229.792C566.607 229.792 567.341 229.104 567.341 227.942V227.544L565.766 227.666C564.603 227.773 564.16 228.156 564.16 228.767C564.16 229.456 564.619 229.792 565.46 229.792ZM573.442 231H571.577V225.006H570.124V223.446H571.577V221.091H573.442V223.446H574.91V225.006H573.442V231ZM579.375 231.199C577.127 231.199 575.552 229.563 575.552 227.223C575.552 224.853 577.096 223.216 579.314 223.216C581.577 223.216 583.014 224.73 583.014 227.085V227.651L577.326 227.666C577.463 228.997 578.167 229.67 579.405 229.67C580.43 229.67 581.103 229.272 581.317 228.553H583.045C582.724 230.205 581.348 231.199 579.375 231.199ZM579.329 224.746C578.228 224.746 577.555 225.342 577.372 226.474H581.164C581.164 225.434 580.445 224.746 579.329 224.746Z" fill="white"/>
<path d="M780 0H520V186H780V0Z" fill="#2EB710"/>
<path d="M551.518 121H550.417V110.051H551.518V114.929H557.436V110.051H558.521V121H557.436V115.954H551.518V121ZM567.759 121H561.199V110.051H567.744V111.06H562.3V115.006H567.239V116H562.3V119.991H567.759V121ZM572.701 115.541L568.878 110.051H570.178L572.212 112.926C572.732 113.66 573.083 114.241 573.343 114.73L576.524 110.051H577.793L574.032 115.51L577.854 121H576.539L574.46 118.064C574.093 117.544 573.649 116.871 573.374 116.382L570.178 121H568.893L572.701 115.541ZM551.518 139H550.417V128.051H554.5C556.717 128.051 558.063 129.274 558.063 131.216C558.063 132.792 557.237 133.893 555.83 134.275L558.17 139H556.946L554.714 134.458H551.518V139ZM551.518 129.045V133.464H554.53C556.044 133.464 556.931 132.639 556.931 131.247C556.931 129.825 555.998 129.045 554.5 129.045H551.518ZM564.726 128.907C562.203 128.907 560.612 130.773 560.612 133.571C560.612 136.416 562.295 138.144 564.757 138.144C566.592 138.144 568.381 137.257 568.381 134.627V134.061H564.42V133.082H569.421V139.015H568.549L568.442 137.272C567.861 138.358 566.485 139.184 564.711 139.184C561.606 139.184 559.466 136.951 559.466 133.571C559.466 130.223 561.606 127.868 564.741 127.868C567.05 127.868 568.839 129.183 569.268 131.171H568.075C567.616 129.672 566.332 128.907 564.726 128.907ZM571.607 139V128.051H575.614C577.724 128.051 579.024 129.122 579.024 130.88C579.024 132.165 578.458 133.036 577.326 133.48C578.596 133.893 579.238 134.779 579.238 136.125C579.238 137.884 577.923 139 575.843 139H571.607ZM575.598 129.03H572.708V133.036H575.736C577.112 133.036 577.892 132.272 577.892 130.972C577.892 129.748 577.066 129.03 575.598 129.03ZM575.843 134H572.708V138.006H575.843C577.281 138.006 578.122 137.257 578.122 135.988C578.122 134.749 577.265 134 575.843 134ZM554.882 158.168C551.824 158.168 549.744 155.89 549.744 152.526C549.744 149.161 551.854 146.868 554.943 146.868C557.298 146.868 559.148 148.29 559.592 150.461H558.414C557.956 148.886 556.61 147.923 554.897 147.923C552.496 147.923 550.891 149.758 550.891 152.526C550.891 155.278 552.496 157.113 554.897 157.113C556.625 157.113 558.002 156.18 558.476 154.712H559.653C559.148 156.777 557.237 158.168 554.882 158.168ZM562.643 158H561.557V147.051H562.643L566.634 156.7L570.625 147.051H571.726V158H570.64V152.801C570.64 150.889 570.671 150.048 570.732 149.299L567.169 158H566.114L562.551 149.345C562.612 149.758 562.643 150.966 562.643 152.633V158ZM576.923 153.428L573.207 147.051H574.446L577.153 151.776C577.275 152.006 577.367 152.189 577.474 152.434C577.611 152.159 577.611 152.159 577.81 151.776L580.486 147.051H581.694L578.024 153.428V158H576.923V153.428ZM584.282 147.051V153.642L589.557 147.051H590.872L587.157 151.684L590.934 158H589.649L586.438 152.602L584.282 155.278V158H583.181V147.051H584.282Z" fill="white"/>
<path d="M612.456 120.985L604.703 121V119.532L608.358 116.443C609.872 115.159 610.377 114.425 610.377 113.354C610.377 112.085 609.689 111.366 608.511 111.366C607.288 111.366 606.523 112.223 606.508 113.66H604.566C604.581 111.213 606.141 109.623 608.511 109.623C610.897 109.623 612.38 110.984 612.38 113.247C612.38 114.807 611.524 115.984 609.826 117.437L607.808 119.165H612.456V120.985ZM621.186 121H614.243V109.822H621.186V111.626H616.201V114.501H620.666V116.229H616.201V119.196H621.186V121ZM623.308 121V109.822H627.758C629.96 109.822 631.306 110.969 631.306 112.834C631.306 114.073 630.755 114.96 629.7 115.403C630.877 115.786 631.474 116.672 631.474 117.972C631.474 119.884 630.143 121 627.834 121H623.308ZM627.59 111.55H625.265V114.593H627.636C628.706 114.593 629.302 114.027 629.302 113.033C629.302 112.07 628.691 111.55 627.59 111.55ZM627.758 116.244H625.265V119.272H627.758C628.859 119.272 629.471 118.737 629.471 117.728C629.471 116.779 628.844 116.244 627.758 116.244ZM632.137 109.822H640.165V111.626L636.113 121H634.079L638.208 111.626H632.137V109.822ZM643.479 111.58H641.032V109.822H645.36V121H643.479V111.58ZM647.262 115.434C647.262 111.963 649.128 109.608 651.988 109.608C654.847 109.608 656.728 111.963 656.728 115.434C656.728 118.89 654.954 121.199 651.988 121.199C649.021 121.199 647.262 118.89 647.262 115.434ZM649.189 115.434C649.189 118.018 650.229 119.471 651.988 119.471C653.761 119.471 654.801 118.018 654.801 115.434C654.801 112.788 653.761 111.336 651.988 111.336C650.229 111.336 649.189 112.788 649.189 115.434ZM613.313 136.874H611.952V139H610.101V136.874H604.428V135.162L609.49 127.822H611.952V135.162H613.313V136.874ZM606.508 135.162H610.101V129.932L606.508 135.162ZM615.94 131.109L618.356 127.822H620.588L617.912 131.385C618.188 131.308 618.478 131.262 618.753 131.262C621.062 131.262 622.622 132.883 622.622 135.146C622.622 137.532 620.848 139.199 618.463 139.199C616.047 139.199 614.242 137.425 614.242 135.131C614.242 133.786 614.686 132.807 615.94 131.109ZM616.245 135.146C616.245 136.507 617.148 137.456 618.463 137.456C619.732 137.456 620.65 136.507 620.65 135.146C620.65 133.801 619.747 132.868 618.463 132.868C617.132 132.868 616.245 133.801 616.245 135.146ZM634.384 129.58H631.938V127.822H636.265V139H634.384V129.58ZM638.048 135.835C638.048 134.504 638.798 133.434 639.96 132.99C638.981 132.547 638.446 131.706 638.446 130.62C638.446 128.846 640.021 127.623 642.33 127.623C644.624 127.623 646.168 128.831 646.168 130.651C646.168 131.736 645.618 132.577 644.624 132.99C645.801 133.403 646.566 134.489 646.566 135.835C646.566 137.853 644.899 139.184 642.299 139.184C639.715 139.184 638.048 137.868 638.048 135.835ZM640.22 130.788C640.22 131.721 641.03 132.317 642.299 132.317C643.553 132.317 644.348 131.736 644.348 130.804C644.348 129.871 643.553 129.29 642.299 129.29C641.03 129.29 640.22 129.871 640.22 130.788ZM639.96 135.697C639.96 136.783 640.862 137.456 642.315 137.456C643.737 137.456 644.639 136.783 644.639 135.697C644.639 134.611 643.737 133.938 642.299 133.938C640.862 133.938 639.96 134.611 639.96 135.697ZM651.267 133.464H649.906V132.195L652.781 129.55H648.133V127.822H655.228V129.381L652.506 131.889C654.219 132.226 655.549 133.48 655.549 135.452C655.549 137.746 653.76 139.199 651.497 139.199C649.31 139.199 647.613 137.853 647.613 135.437H649.539C649.539 136.722 650.335 137.456 651.527 137.456C652.751 137.456 653.561 136.66 653.561 135.422C653.561 134.29 652.827 133.464 651.267 133.464ZM667.223 129.58H664.776V127.822H669.104V139H667.223V129.58ZM672.597 131.109L675.013 127.822H677.246L674.57 131.385C674.845 131.308 675.135 131.262 675.411 131.262C677.72 131.262 679.279 132.883 679.279 135.146C679.279 137.532 677.506 139.199 675.12 139.199C672.704 139.199 670.9 137.425 670.9 135.131C670.9 133.786 671.343 132.807 672.597 131.109ZM672.903 135.146C672.903 136.507 673.805 137.456 675.12 137.456C676.389 137.456 677.307 136.507 677.307 135.146C677.307 133.801 676.405 132.868 675.12 132.868C673.79 132.868 672.903 133.801 672.903 135.146ZM604.107 146.822H612.135V148.626L608.083 158H606.049L610.178 148.626H604.107V146.822ZM616.545 158.184C614.206 158.184 612.661 156.685 612.661 154.422H614.603C614.603 155.691 615.352 156.44 616.591 156.44C617.906 156.44 618.747 155.584 618.747 154.223C618.747 152.923 617.967 152.036 616.622 152.036C615.765 152.036 614.985 152.464 614.588 153.045L612.86 152.678L614.236 146.822H620.062V148.626H615.643L615.047 150.95C615.582 150.599 616.255 150.4 617.019 150.4C619.252 150.4 620.735 151.914 620.735 154.116C620.735 156.532 619.038 158.184 616.545 158.184ZM630.104 152.434C630.104 148.963 631.97 146.608 634.829 146.608C637.689 146.608 639.57 148.963 639.57 152.434C639.57 155.89 637.796 158.199 634.829 158.199C631.863 158.199 630.104 155.89 630.104 152.434ZM632.031 152.434C632.031 155.018 633.071 156.471 634.829 156.471C636.603 156.471 637.643 155.018 637.643 152.434C637.643 149.788 636.603 148.336 634.829 148.336C633.071 148.336 632.031 149.788 632.031 152.434ZM655.705 154.712L653.289 158H651.056L653.732 154.437C653.457 154.513 653.166 154.559 652.891 154.559C650.582 154.559 649.022 152.938 649.022 150.675C649.022 148.29 650.796 146.623 653.181 146.623C655.598 146.623 657.402 148.397 657.402 150.691C657.402 152.036 656.959 153.015 655.705 154.712ZM655.399 150.675C655.399 149.314 654.497 148.366 653.181 148.366C651.897 148.366 650.995 149.314 650.995 150.675C650.995 152.021 651.897 152.954 653.181 152.954C654.512 152.954 655.399 152.021 655.399 150.675ZM660.757 148.58H658.31V146.822H662.638V158H660.757V148.58ZM680.582 157.985L672.83 158V156.532L676.484 153.443C677.998 152.159 678.503 151.425 678.503 150.354C678.503 149.085 677.815 148.366 676.637 148.366C675.414 148.366 674.649 149.223 674.634 150.66H672.692C672.707 148.213 674.267 146.623 676.637 146.623C679.023 146.623 680.506 147.984 680.506 150.247C680.506 151.807 679.65 152.984 677.952 154.437L675.934 156.165H680.582V157.985ZM681.773 154.835C681.773 153.504 682.522 152.434 683.685 151.99C682.706 151.547 682.171 150.706 682.171 149.62C682.171 147.846 683.746 146.623 686.055 146.623C688.349 146.623 689.893 147.831 689.893 149.651C689.893 150.736 689.343 151.577 688.349 151.99C689.526 152.403 690.291 153.489 690.291 154.835C690.291 156.853 688.624 158.184 686.024 158.184C683.44 158.184 681.773 156.868 681.773 154.835ZM683.945 149.788C683.945 150.721 684.755 151.317 686.024 151.317C687.278 151.317 688.073 150.736 688.073 149.804C688.073 148.871 687.278 148.29 686.024 148.29C684.755 148.29 683.945 148.871 683.945 149.788ZM683.685 154.697C683.685 155.783 684.587 156.456 686.04 156.456C687.462 156.456 688.364 155.783 688.364 154.697C688.364 153.611 687.462 152.938 686.024 152.938C684.587 152.938 683.685 153.611 683.685 154.697Z" fill="white"/>
<path d="M551.884 45H549.988V33.8217H551.884L555.493 42.7215L559.102 33.8217H561.029V45H559.132V41.5593C559.132 39.3115 559.132 38.6539 559.239 37.8587L556.395 45H554.591L551.762 37.874C551.869 38.5469 551.884 39.602 551.884 40.9936V45ZM566.607 45.1988C564.359 45.1988 562.784 43.5626 562.784 41.2229C562.784 38.8527 564.328 37.2165 566.546 37.2165C568.809 37.2165 570.246 38.7304 570.246 41.0853V41.6511L564.558 41.6664C564.695 42.9968 565.399 43.6696 566.637 43.6696C567.662 43.6696 568.335 43.272 568.549 42.5533H570.277C569.956 44.2048 568.579 45.1988 566.607 45.1988ZM566.561 38.7457C565.46 38.7457 564.787 39.342 564.604 40.4736H568.396C568.396 39.4338 567.677 38.7457 566.561 38.7457ZM573.913 45.1988C572.307 45.1988 571.328 44.266 571.328 42.8439C571.328 41.4523 572.338 40.5807 574.127 40.443L576.39 40.2748V40.1066C576.39 39.0821 575.778 38.6692 574.83 38.6692C573.729 38.6692 573.117 39.128 573.117 39.9231H571.527C571.527 38.2869 572.873 37.2165 574.922 37.2165C576.956 37.2165 578.21 38.3175 578.21 40.4125V45H576.573L576.436 43.8837C576.115 44.6636 575.09 45.1988 573.913 45.1988ZM574.524 43.7919C575.671 43.7919 576.405 43.1038 576.405 41.9416V41.5441L574.83 41.6664C573.668 41.7734 573.224 42.1557 573.224 42.7674C573.224 43.4555 573.683 43.7919 574.524 43.7919ZM583.147 45.1988C580.96 45.1988 579.599 43.5932 579.599 41.2535C579.599 38.8986 580.975 37.2165 583.254 37.2165C584.309 37.2165 585.242 37.6599 585.716 38.4092V33.6229H587.566V45H585.853L585.731 43.8225C585.272 44.6942 584.293 45.1988 583.147 45.1988ZM583.559 43.4861C584.859 43.4861 585.7 42.5533 585.7 41.1923C585.7 39.8314 584.859 38.8833 583.559 38.8833C582.26 38.8833 581.464 39.8467 581.464 41.1923C581.464 42.538 582.26 43.4861 583.559 43.4861ZM589.067 41.2076C589.067 38.8527 590.764 37.2318 593.104 37.2318C595.443 37.2318 597.141 38.8527 597.141 41.2076C597.141 43.5626 595.443 45.1835 593.104 45.1835C590.764 45.1835 589.067 43.5626 589.067 41.2076ZM590.932 41.2076C590.932 42.5839 591.819 43.5167 593.104 43.5167C594.388 43.5167 595.275 42.5839 595.275 41.2076C595.275 39.8314 594.388 38.8986 593.104 38.8986C591.819 38.8986 590.932 39.8314 590.932 41.2076ZM599.913 45L597.466 37.4459H599.408L600.402 40.6877C600.57 41.2841 600.723 41.9416 600.861 42.6451C600.999 41.9111 601.136 41.437 601.381 40.6877L602.421 37.4459H604.317L605.326 40.6877C605.418 40.9936 605.724 42.1251 605.816 42.6298C605.938 42.064 606.183 41.1618 606.32 40.6877L607.329 37.4459H609.302L606.687 45H604.944L603.904 41.7276C603.598 40.7336 603.43 40.0149 603.369 39.6326C603.292 39.9843 603.155 40.5195 602.773 41.7581L601.733 45H599.913Z" fill="white"/>
</svg>
